<svg width="500" height="368" viewBox="0 0 500 368" fill="none" xmlns="http://www.w3.org/2000/svg">
<path d="M4.96875 113V35.9091H38.3949C44.267 35.9091 49.1982 36.6996 53.1882 38.2805C57.2034 39.8615 60.2273 42.0949 62.2599 44.9808C64.3177 47.8667 65.3466 51.267 65.3466 55.1818C65.3466 58.0175 64.7192 60.6023 63.4645 62.9361C62.2349 65.2699 60.5033 67.2273 58.2699 68.8082C56.0365 70.3641 53.4266 71.4432 50.4403 72.0455V72.7983C53.7528 72.9238 56.7642 73.7644 59.4744 75.3203C62.1847 76.8511 64.3428 78.9716 65.9489 81.6818C67.5549 84.3669 68.358 87.5289 68.358 91.1676C68.358 95.3835 67.2538 99.1352 65.0455 102.423C62.8622 105.71 59.7505 108.295 55.7102 110.177C51.67 112.059 46.8518 113 41.2557 113H4.96875ZM25.8977 96.2869H35.6847C39.1979 96.2869 41.8329 95.6345 43.5895 94.3295C45.3461 92.9995 46.2244 91.0421 46.2244 88.4574C46.2244 86.6506 45.8104 85.1198 44.9822 83.8651C44.1541 82.6103 42.9747 81.6567 41.4439 81.0043C39.9382 80.3518 38.1188 80.0256 35.9858 80.0256H25.8977V96.2869ZM25.8977 67.0767H34.4801C36.312 67.0767 37.9306 66.7881 39.3359 66.2109C40.7412 65.6338 41.8329 64.8056 42.6108 63.7266C43.4138 62.6224 43.8153 61.2798 43.8153 59.6989C43.8153 57.3149 42.9621 55.4955 41.2557 54.2408C39.5492 52.9609 37.3911 52.321 34.7812 52.321H25.8977V67.0767ZM150.455 74.4545C150.455 83.0369 148.786 90.2768 145.449 96.174C142.111 102.046 137.607 106.5 131.935 109.537C126.264 112.548 119.94 114.054 112.964 114.054C105.937 114.054 99.5883 112.536 93.9169 109.499C88.2706 106.438 83.7786 101.971 80.4411 96.0987C77.1286 90.2015 75.4723 82.9867 75.4723 74.4545C75.4723 65.8722 77.1286 58.6449 80.4411 52.7727C83.7786 46.8755 88.2706 42.4212 93.9169 39.4098C99.5883 36.3733 105.937 34.8551 112.964 34.8551C119.94 34.8551 126.264 36.3733 131.935 39.4098C137.607 42.4212 142.111 46.8755 145.449 52.7727C148.786 58.6449 150.455 65.8722 150.455 74.4545ZM128.924 74.4545C128.924 69.8371 128.309 65.9474 127.08 62.7855C125.875 59.5985 124.081 57.1894 121.697 55.5582C119.338 53.902 116.427 53.0739 112.964 53.0739C109.501 53.0739 106.577 53.902 104.193 55.5582C101.834 57.1894 100.04 59.5985 98.8104 62.7855C97.6058 65.9474 97.0036 69.8371 97.0036 74.4545C97.0036 79.072 97.6058 82.9742 98.8104 86.1612C100.04 89.3232 101.834 91.7322 104.193 93.3885C106.577 95.0196 109.501 95.8352 112.964 95.8352C116.427 95.8352 119.338 95.0196 121.697 93.3885C124.081 91.7322 125.875 89.3232 127.08 86.1612C128.309 82.9742 128.924 79.072 128.924 74.4545ZM160.139 113V35.9091H181.068V96.1364H212.235V113H160.139ZM250.357 113H220.695V35.9091H250.056C257.986 35.9091 264.837 37.4524 270.609 40.5391C276.406 43.6006 280.872 48.0173 284.009 53.7891C287.171 59.5357 288.752 66.4242 288.752 74.4545C288.752 82.4848 287.184 89.3859 284.047 95.1577C280.91 100.904 276.468 105.321 270.722 108.408C264.975 111.469 258.187 113 250.357 113ZM241.624 95.233H249.604C253.419 95.233 256.669 94.6181 259.354 93.3885C262.064 92.1589 264.122 90.0384 265.527 87.027C266.957 84.0156 267.673 79.8248 267.673 74.4545C267.673 69.0843 266.945 64.8935 265.489 61.8821C264.059 58.8707 261.951 56.7502 259.165 55.5206C256.405 54.291 253.017 53.6761 249.002 53.6761H241.624V95.233ZM3.28125 174V123.091H25.3551C29.233 123.091 32.4893 123.613 35.1243 124.657C37.7758 125.701 39.7727 127.176 41.1151 129.082C42.474 130.987 43.1534 133.233 43.1534 135.818C43.1534 137.691 42.7391 139.398 41.9105 140.939C41.0985 142.48 39.955 143.773 38.4801 144.817C37.0052 145.844 35.2817 146.557 33.3097 146.955V147.452C35.4972 147.535 37.4858 148.09 39.2756 149.117C41.0653 150.128 42.4905 151.528 43.5511 153.318C44.6117 155.091 45.142 157.179 45.142 159.582C45.142 162.366 44.4129 164.844 42.9545 167.015C41.5128 169.186 39.4579 170.893 36.7898 172.136C34.1217 173.379 30.9399 174 27.2443 174H3.28125ZM17.1023 162.963H23.5653C25.8854 162.963 27.6255 162.532 28.7855 161.67C29.9456 160.792 30.5256 159.5 30.5256 157.793C30.5256 156.599 30.2521 155.589 29.7053 154.76C29.1584 153.931 28.3795 153.302 27.3686 152.871C26.3743 152.44 25.1728 152.224 23.7642 152.224H17.1023V162.963ZM17.1023 143.673H22.7699C23.9796 143.673 25.0485 143.483 25.9766 143.102C26.9046 142.72 27.6255 142.174 28.1392 141.461C28.6695 140.732 28.9347 139.845 28.9347 138.801C28.9347 137.227 28.3712 136.025 27.2443 135.197C26.1174 134.352 24.6922 133.929 22.9688 133.929H17.1023V143.673ZM50.0391 174V123.091H72.0135C75.7919 123.091 79.098 123.779 81.9318 125.154C84.7656 126.53 86.9697 128.51 88.544 131.095C90.1184 133.68 90.9055 136.779 90.9055 140.392C90.9055 144.038 90.0935 147.112 88.4695 149.614C86.862 152.117 84.5999 154.006 81.6832 155.282C78.7831 156.558 75.3942 157.196 71.5163 157.196H58.3913V146.457H68.7322C70.3563 146.457 71.7401 146.259 72.8835 145.861C74.0436 145.446 74.9302 144.792 75.5433 143.897C76.1731 143.002 76.4879 141.834 76.4879 140.392C76.4879 138.934 76.1731 137.749 75.5433 136.837C74.9302 135.909 74.0436 135.23 72.8835 134.799C71.7401 134.352 70.3563 134.128 68.7322 134.128H63.8601V174H50.0391ZM79.8686 150.634L92.5959 174H77.5817L65.1527 150.634H79.8686ZM110.021 174H95.1065L111.911 123.091H130.803L147.607 174H132.692L121.555 137.111H121.158L110.021 174ZM107.237 153.915H135.277V164.256H107.237V153.915ZM166.331 123.091V174H152.51V123.091H166.331ZM216.929 123.091V174H205.395L187 147.253H186.702V174H172.881V123.091H184.614L202.71 149.739H203.108V123.091H216.929ZM221.379 123.091H236.791L246.734 143.773H247.132L257.075 123.091H272.487L253.794 157.991V174H240.072V157.991L221.379 123.091ZM3.28125 235V184.091H25.3551C29.233 184.091 32.4893 184.613 35.1243 185.657C37.7758 186.701 39.7727 188.176 41.1151 190.082C42.474 191.987 43.1534 194.233 43.1534 196.818C43.1534 198.691 42.7391 200.398 41.9105 201.939C41.0985 203.48 39.955 204.773 38.4801 205.817C37.0052 206.844 35.2817 207.557 33.3097 207.955V208.452C35.4972 208.535 37.4858 209.09 39.2756 210.117C41.0653 211.128 42.4905 212.528 43.5511 214.318C44.6117 216.091 45.142 218.179 45.142 220.582C45.142 223.366 44.4129 225.844 42.9545 228.015C41.5128 230.186 39.4579 231.893 36.7898 233.136C34.1217 234.379 30.9399 235 27.2443 235H3.28125ZM17.1023 223.963H23.5653C25.8854 223.963 27.6255 223.532 28.7855 222.67C29.9456 221.792 30.5256 220.5 30.5256 218.793C30.5256 217.599 30.2521 216.589 29.7053 215.76C29.1584 214.931 28.3795 214.302 27.3686 213.871C26.3743 213.44 25.1728 213.224 23.7642 213.224H17.1023V223.963ZM17.1023 204.673H22.7699C23.9796 204.673 25.0485 204.483 25.9766 204.102C26.9046 203.72 27.6255 203.174 28.1392 202.461C28.6695 201.732 28.9347 200.845 28.9347 199.801C28.9347 198.227 28.3712 197.025 27.2443 196.197C26.1174 195.352 24.6922 194.929 22.9688 194.929H17.1023V204.673ZM50.0391 235V184.091H72.0135C75.7919 184.091 79.098 184.779 81.9318 186.154C84.7656 187.53 86.9697 189.51 88.544 192.095C90.1184 194.68 90.9055 197.779 90.9055 201.392C90.9055 205.038 90.0935 208.112 88.4695 210.614C86.862 213.117 84.5999 215.006 81.6832 216.282C78.7831 217.558 75.3942 218.196 71.5163 218.196H58.3913V207.457H68.7322C70.3563 207.457 71.7401 207.259 72.8835 206.861C74.0436 206.446 74.9302 205.792 75.5433 204.897C76.1731 204.002 76.4879 202.834 76.4879 201.392C76.4879 199.934 76.1731 198.749 75.5433 197.837C74.9302 196.909 74.0436 196.23 72.8835 195.799C71.7401 195.352 70.3563 195.128 68.7322 195.128H63.8601V235H50.0391ZM79.8686 211.634L92.5959 235H77.5817L65.1527 211.634H79.8686ZM110.021 235H95.1065L111.911 184.091H130.803L147.607 235H132.692L121.555 198.111H121.158L110.021 235ZM107.237 214.915H135.277V225.256H107.237V214.915ZM159.047 184.091L169.488 219.986H169.885L180.326 184.091H195.937L179.133 235H160.241L143.437 184.091H159.047ZM200.84 235V184.091H237.53V195.227H214.661V203.977H235.641V215.114H214.661V223.864H237.431V235H200.84Z" fill="white"/>
<path d="M2.71804 276V244.727H15.2393C17.54 244.727 19.4589 245.068 20.9961 245.75C22.5333 246.432 23.6887 247.379 24.4624 248.591C25.236 249.792 25.6229 251.176 25.6229 252.744C25.6229 253.966 25.3786 255.04 24.8899 255.966C24.4013 256.882 23.7294 257.635 22.8743 258.226C22.0294 258.806 21.0623 259.218 19.973 259.463V259.768C21.1641 259.819 22.2788 260.155 23.3171 260.776C24.3656 261.397 25.2157 262.267 25.8672 263.387C26.5187 264.497 26.8445 265.82 26.8445 267.357C26.8445 269.017 26.4322 270.498 25.6076 271.801C24.7932 273.094 23.5869 274.117 21.9886 274.87C20.3904 275.623 18.4206 276 16.0792 276H2.71804ZM9.3299 270.594H14.7202C16.5627 270.594 17.9065 270.243 18.7514 269.541C19.5964 268.828 20.0188 267.882 20.0188 266.701C20.0188 265.835 19.8101 265.072 19.3928 264.41C18.9754 263.748 18.3799 263.229 17.6062 262.853C16.8427 262.476 15.9316 262.288 14.8729 262.288H9.3299V270.594ZM9.3299 257.814H14.2315C15.1375 257.814 15.9418 257.656 16.6442 257.34C17.3568 257.014 17.9167 256.556 18.3239 255.966C18.7412 255.375 18.9499 254.668 18.9499 253.843C18.9499 252.713 18.5478 251.802 17.7436 251.11C16.9496 250.418 15.8196 250.072 14.3537 250.072H9.3299V257.814ZM31.1468 276V244.727H52.2192V250.179H37.7586V257.63H51.135V263.082H37.7586V270.549H52.2803V276H31.1468ZM62.8661 276H55.7809L66.5767 244.727H75.0973L85.8778 276H78.7926L70.9592 251.874H70.7148L62.8661 276ZM62.4233 263.708H79.1591V268.869H62.4233V263.708ZM108.958 244.727H115.57V265.036C115.57 267.317 115.026 269.312 113.936 271.022C112.857 272.732 111.345 274.066 109.401 275.023C107.457 275.969 105.192 276.443 102.606 276.443C100.01 276.443 97.74 275.969 95.7956 275.023C93.8513 274.066 92.3395 272.732 91.2605 271.022C90.1814 269.312 89.6419 267.317 89.6419 265.036V244.727H96.2537V264.471C96.2537 265.662 96.5133 266.721 97.0325 267.647C97.5618 268.574 98.305 269.302 99.2619 269.831C100.219 270.36 101.334 270.625 102.606 270.625C103.889 270.625 105.003 270.36 105.95 269.831C106.907 269.302 107.645 268.574 108.164 267.647C108.694 266.721 108.958 265.662 108.958 264.471V244.727ZM119.819 250.179V244.727H145.503V250.179H135.929V276H129.393V250.179H119.819ZM156.345 244.727V276H149.733V244.727H156.345ZM161.784 276V244.727H182.49V250.179H168.396V257.63H181.116V263.082H168.396V276H161.784ZM206.254 244.727H212.866V265.036C212.866 267.317 212.321 269.312 211.232 271.022C210.153 272.732 208.641 274.066 206.697 275.023C204.753 275.969 202.488 276.443 199.902 276.443C197.306 276.443 195.036 275.969 193.092 275.023C191.147 274.066 189.635 272.732 188.556 271.022C187.477 269.312 186.938 267.317 186.938 265.036V244.727H193.55V264.471C193.55 265.662 193.809 266.721 194.328 267.647C194.858 268.574 195.601 269.302 196.558 269.831C197.515 270.36 198.629 270.625 199.902 270.625C201.185 270.625 202.299 270.36 203.246 269.831C204.203 269.302 204.941 268.574 205.46 267.647C205.989 266.721 206.254 265.662 206.254 264.471V244.727ZM218.306 276V244.727H224.918V270.549H238.325V276H218.306Z" fill="#BF9B30"/>
<path d="M15.4318 27.3082C14 27.3082 12.7505 26.9801 11.6832 26.3239C10.616 25.6676 9.78741 24.7495 9.19744 23.5696C8.60748 22.3897 8.3125 21.0109 8.3125 19.4332C8.3125 17.849 8.60748 16.4635 9.19744 15.277C9.78741 14.0904 10.616 13.169 11.6832 12.5128C12.7505 11.8565 14 11.5284 15.4318 11.5284C16.8636 11.5284 18.1132 11.8565 19.1804 12.5128C20.2476 13.169 21.0762 14.0904 21.6662 15.277C22.2562 16.4635 22.5511 17.849 22.5511 19.4332C22.5511 21.0109 22.2562 22.3897 21.6662 23.5696C21.0762 24.7495 20.2476 25.6676 19.1804 26.3239C18.1132 26.9801 16.8636 27.3082 15.4318 27.3082ZM15.4418 24.8125C16.3698 24.8125 17.1387 24.5672 17.7486 24.0767C18.3584 23.5862 18.8092 22.9332 19.1009 22.1179C19.3991 21.3026 19.5483 20.4044 19.5483 19.4233C19.5483 18.4489 19.3991 17.554 19.1009 16.7386C18.8092 15.9167 18.3584 15.2571 17.7486 14.7599C17.1387 14.2628 16.3698 14.0142 15.4418 14.0142C14.5071 14.0142 13.7315 14.2628 13.1151 14.7599C12.5052 15.2571 12.0511 15.9167 11.7528 16.7386C11.4612 17.554 11.3153 18.4489 11.3153 19.4233C11.3153 20.4044 11.4612 21.3026 11.7528 22.1179C12.0511 22.9332 12.5052 23.5862 13.1151 24.0767C13.7315 24.5672 14.5071 24.8125 15.4418 24.8125ZM28.8427 17.9318V27H25.8697V11.7273H28.7234V14.2131H28.9123C29.2636 13.4044 29.8138 12.7547 30.5629 12.2642C31.3185 11.7737 32.2698 11.5284 33.4165 11.5284C34.4573 11.5284 35.3687 11.7472 36.1509 12.1847C36.9331 12.6155 37.5397 13.2585 37.9705 14.1136C38.4014 14.9687 38.6168 16.026 38.6168 17.2855V27H35.6438V17.6435C35.6438 16.5365 35.3555 15.6714 34.7788 15.0483C34.2021 14.4186 33.4099 14.1037 32.4023 14.1037C31.7129 14.1037 31.0998 14.2528 30.5629 14.5511C30.0326 14.8494 29.6116 15.2869 29.3001 15.8636C28.9951 16.4337 28.8427 17.1231 28.8427 17.9318ZM45.5771 6.63636V27H42.604V6.63636H45.5771ZM51.456 32.7273C51.0118 32.7273 50.6075 32.6908 50.2429 32.6179C49.8783 32.5516 49.6065 32.4787 49.4276 32.3991L50.1435 29.9631C50.687 30.1089 51.1709 30.1719 51.5952 30.152C52.0194 30.1321 52.3939 29.973 52.7188 29.6747C53.0502 29.3764 53.3419 28.8892 53.5938 28.2131L53.9616 27.1989L48.3736 11.7273H51.5554L55.4233 23.5795H55.5824L59.4503 11.7273H62.642L56.348 29.0384C56.0563 29.8338 55.6851 30.5066 55.2344 31.0568C54.7836 31.6136 54.2467 32.0313 53.6236 32.3097C53.0005 32.5881 52.2779 32.7273 51.456 32.7273ZM80.1147 11.7273V14.1136H71.484V11.7273H80.1147ZM73.8505 27V9.95739C73.8505 9.00284 74.0593 8.2107 74.4769 7.58097C74.8945 6.9446 75.448 6.47064 76.1374 6.15909C76.8268 5.84091 77.5759 5.68182 78.3846 5.68182C78.9812 5.68182 79.4916 5.73153 79.9158 5.83097C80.3401 5.92377 80.6549 6.00994 80.8604 6.08949L80.1644 8.49574C80.0252 8.45597 79.8462 8.40956 79.6275 8.35653C79.4087 8.29687 79.1436 8.26704 78.832 8.26704C78.1095 8.26704 77.5924 8.44602 77.2809 8.80398C76.976 9.16193 76.8235 9.67898 76.8235 10.3551V27H73.8505ZM89.0138 27.3082C87.582 27.3082 86.3325 26.9801 85.2653 26.3239C84.198 25.6676 83.3694 24.7495 82.7795 23.5696C82.1895 22.3897 81.8945 21.0109 81.8945 19.4332C81.8945 17.849 82.1895 16.4635 82.7795 15.277C83.3694 14.0904 84.198 13.169 85.2653 12.5128C86.3325 11.8565 87.582 11.5284 89.0138 11.5284C90.4457 11.5284 91.6952 11.8565 92.7624 12.5128C93.8297 13.169 94.6583 14.0904 95.2482 15.277C95.8382 16.4635 96.1332 17.849 96.1332 19.4332C96.1332 21.0109 95.8382 22.3897 95.2482 23.5696C94.6583 24.7495 93.8297 25.6676 92.7624 26.3239C91.6952 26.9801 90.4457 27.3082 89.0138 27.3082ZM89.0238 24.8125C89.9518 24.8125 90.7208 24.5672 91.3306 24.0767C91.9405 23.5862 92.3912 22.9332 92.6829 22.1179C92.9812 21.3026 93.1303 20.4044 93.1303 19.4233C93.1303 18.4489 92.9812 17.554 92.6829 16.7386C92.3912 15.9167 91.9405 15.2571 91.3306 14.7599C90.7208 14.2628 89.9518 14.0142 89.0238 14.0142C88.0891 14.0142 87.3136 14.2628 86.6971 14.7599C86.0872 15.2571 85.6332 15.9167 85.3349 16.7386C85.0432 17.554 84.8974 18.4489 84.8974 19.4233C84.8974 20.4044 85.0432 21.3026 85.3349 22.1179C85.6332 22.9332 86.0872 23.5862 86.6971 24.0767C87.3136 24.5672 88.0891 24.8125 89.0238 24.8125ZM99.4517 27V11.7273H102.325V14.1534H102.484C102.763 13.3314 103.253 12.6851 103.956 12.2145C104.665 11.7372 105.467 11.4986 106.362 11.4986C106.548 11.4986 106.767 11.5052 107.018 11.5185C107.277 11.5317 107.479 11.5483 107.625 11.5682V14.4119C107.506 14.3788 107.294 14.3423 106.989 14.3026C106.684 14.2562 106.379 14.233 106.074 14.233C105.371 14.233 104.745 14.3821 104.195 14.6804C103.651 14.9721 103.22 15.3797 102.902 15.9034C102.584 16.4205 102.425 17.0104 102.425 17.6733V27H99.4517ZM117.021 13V11.0909C117.021 10.5275 117.127 9.93418 117.339 9.31108C117.552 8.68797 117.847 8.09138 118.224 7.52131C118.602 6.95123 119.046 6.46401 119.557 6.05966L121.028 7.11364C120.624 7.7036 120.279 8.32007 119.994 8.96307C119.709 9.60606 119.567 10.3054 119.567 11.0611V13H117.021ZM134.941 11.9858C134.835 11.0445 134.398 10.3153 133.629 9.79829C132.86 9.27462 131.892 9.01278 130.725 9.01278C129.89 9.01278 129.168 9.14536 128.558 9.41051C127.948 9.66903 127.474 10.027 127.136 10.4844C126.805 10.9351 126.639 11.4489 126.639 12.0256C126.639 12.5095 126.752 12.9271 126.977 13.2784C127.209 13.6297 127.511 13.9247 127.882 14.1634C128.26 14.3954 128.664 14.5909 129.095 14.75C129.526 14.9025 129.94 15.0284 130.338 15.1278L132.326 15.6449C132.976 15.804 133.642 16.0194 134.325 16.2912C135.008 16.563 135.641 16.9209 136.224 17.3651C136.807 17.8092 137.278 18.3594 137.636 19.0156C138.001 19.6719 138.183 20.4574 138.183 21.3722C138.183 22.5256 137.885 23.5497 137.288 24.4446C136.698 25.3395 135.84 26.0455 134.713 26.5625C133.592 27.0795 132.237 27.3381 130.646 27.3381C129.121 27.3381 127.802 27.0961 126.689 26.6122C125.575 26.1283 124.703 25.4422 124.074 24.554C123.444 23.6591 123.096 22.5985 123.029 21.3722H126.112C126.172 22.108 126.41 22.7211 126.828 23.2116C127.252 23.6955 127.792 24.0568 128.449 24.2955C129.111 24.5275 129.837 24.6435 130.626 24.6435C131.494 24.6435 132.267 24.5076 132.943 24.2358C133.626 23.9574 134.163 23.5729 134.554 23.0824C134.945 22.5852 135.14 22.0052 135.14 21.3423C135.14 20.7391 134.968 20.2453 134.623 19.8608C134.285 19.4763 133.824 19.1581 133.241 18.9062C132.664 18.6544 132.011 18.4323 131.282 18.2401L128.876 17.5838C127.245 17.1397 125.953 16.4867 124.998 15.625C124.05 14.7633 123.576 13.6231 123.576 12.2045C123.576 11.0312 123.895 10.0071 124.531 9.1321C125.167 8.2571 126.029 7.57765 127.116 7.09375C128.203 6.60322 129.43 6.35795 130.795 6.35795C132.174 6.35795 133.39 6.5999 134.444 7.08381C135.505 7.56771 136.34 8.2339 136.95 9.08239C137.56 9.92424 137.878 10.892 137.904 11.9858H134.941ZM144.589 17.9318V27H141.616V6.63636H144.549V14.2131H144.738C145.096 13.3911 145.643 12.7382 146.379 12.2543C147.114 11.7704 148.076 11.5284 149.262 11.5284C150.309 11.5284 151.224 11.7438 152.006 12.1747C152.795 12.6056 153.405 13.2486 153.836 14.1037C154.273 14.9522 154.492 16.0128 154.492 17.2855V27H151.519V17.6435C151.519 16.5232 151.231 15.6548 150.654 15.0384C150.077 14.4152 149.275 14.1037 148.248 14.1037C147.545 14.1037 146.915 14.2528 146.359 14.5511C145.808 14.8494 145.374 15.2869 145.056 15.8636C144.745 16.4337 144.589 17.1231 144.589 17.9318ZM165.042 27.3082C163.537 27.3082 162.241 26.9867 161.154 26.3438C160.074 25.6941 159.238 24.7827 158.648 23.6094C158.065 22.4295 157.773 21.0473 157.773 19.4631C157.773 17.8987 158.065 16.5199 158.648 15.3267C159.238 14.1335 160.06 13.2022 161.114 12.5327C162.175 11.8632 163.415 11.5284 164.833 11.5284C165.695 11.5284 166.53 11.6709 167.339 11.956C168.147 12.241 168.873 12.6884 169.516 13.2983C170.159 13.9081 170.666 14.7003 171.038 15.6747C171.409 16.6425 171.594 17.8191 171.594 19.2045V20.2585H159.454V18.0312H168.681C168.681 17.2491 168.522 16.5563 168.204 15.9531C167.886 15.3433 167.438 14.8627 166.862 14.5114C166.291 14.16 165.622 13.9844 164.853 13.9844C164.018 13.9844 163.289 14.1899 162.665 14.6009C162.049 15.0052 161.572 15.5355 161.234 16.1918C160.902 16.8414 160.737 17.5473 160.737 18.3097V20.0497C160.737 21.0705 160.915 21.9389 161.273 22.6548C161.638 23.3707 162.145 23.9176 162.795 24.2955C163.444 24.6667 164.203 24.8523 165.072 24.8523C165.635 24.8523 166.149 24.7727 166.613 24.6136C167.077 24.4479 167.478 24.2027 167.816 23.8778C168.154 23.553 168.413 23.152 168.592 22.6747L171.406 23.1818C171.18 24.0104 170.776 24.7363 170.192 25.3594C169.616 25.9759 168.89 26.4564 168.015 26.8011C167.147 27.1392 166.156 27.3082 165.042 27.3082ZM177.449 6.63636V8.54545C177.449 9.1089 177.342 9.70218 177.13 10.3253C176.925 10.9418 176.633 11.535 176.255 12.1051C175.877 12.6752 175.433 13.1657 174.923 13.5767L173.451 12.5227C173.842 11.9527 174.181 11.3461 174.466 10.7031C174.757 10.0601 174.903 9.35085 174.903 8.57528V6.63636H177.449ZM191.192 27L186.698 11.7273H189.771L192.763 22.9432H192.913L195.915 11.7273H198.988L201.971 22.8935H202.12L205.093 11.7273H208.165L203.681 27H200.648L197.546 15.973H197.317L194.215 27H191.192ZM213.96 17.9318V27H210.987V6.63636H213.92V14.2131H214.109C214.467 13.3911 215.014 12.7382 215.75 12.2543C216.485 11.7704 217.447 11.5284 218.633 11.5284C219.681 11.5284 220.595 11.7438 221.377 12.1747C222.166 12.6056 222.776 13.2486 223.207 14.1037C223.645 14.9522 223.863 16.0128 223.863 17.2855V27H220.89V17.6435C220.89 16.5232 220.602 15.6548 220.025 15.0384C219.449 14.4152 218.646 14.1037 217.619 14.1037C216.916 14.1037 216.287 14.2528 215.73 14.5511C215.18 14.8494 214.745 15.2869 214.427 15.8636C214.116 16.4337 213.96 17.1231 213.96 17.9318ZM234.264 27.3082C232.832 27.3082 231.583 26.9801 230.515 26.3239C229.448 25.6676 228.619 24.7495 228.029 23.5696C227.44 22.3897 227.145 21.0109 227.145 19.4332C227.145 17.849 227.44 16.4635 228.029 15.277C228.619 14.0904 229.448 13.169 230.515 12.5128C231.583 11.8565 232.832 11.5284 234.264 11.5284C235.696 11.5284 236.945 11.8565 238.012 12.5128C239.08 13.169 239.908 14.0904 240.498 15.277C241.088 16.4635 241.383 17.849 241.383 19.4332C241.383 21.0109 241.088 22.3897 240.498 23.5696C239.908 24.7495 239.08 25.6676 238.012 26.3239C236.945 26.9801 235.696 27.3082 234.264 27.3082ZM234.274 24.8125C235.202 24.8125 235.971 24.5672 236.581 24.0767C237.19 23.5862 237.641 22.9332 237.933 22.1179C238.231 21.3026 238.38 20.4044 238.38 19.4233C238.38 18.4489 238.231 17.554 237.933 16.7386C237.641 15.9167 237.19 15.2571 236.581 14.7599C235.971 14.2628 235.202 14.0142 234.274 14.0142C233.339 14.0142 232.564 14.2628 231.947 14.7599C231.337 15.2571 230.883 15.9167 230.585 16.7386C230.293 17.554 230.147 18.4489 230.147 19.4233C230.147 20.4044 230.293 21.3026 230.585 22.1179C230.883 22.9332 231.337 23.5862 231.947 24.0767C232.564 24.5672 233.339 24.8125 234.274 24.8125ZM252.112 27V11.7273H255.085V27H252.112ZM253.613 9.37074C253.096 9.37074 252.652 9.19839 252.281 8.85369C251.916 8.50237 251.734 8.08475 251.734 7.60085C251.734 7.11032 251.916 6.69271 252.281 6.34801C252.652 5.99668 253.096 5.82102 253.613 5.82102C254.13 5.82102 254.571 5.99668 254.936 6.34801C255.307 6.69271 255.493 7.11032 255.493 7.60085C255.493 8.08475 255.307 8.50237 254.936 8.85369C254.571 9.19839 254.13 9.37074 253.613 9.37074ZM270.529 15.456L267.835 15.9332C267.722 15.5885 267.543 15.2604 267.298 14.9489C267.059 14.6373 266.734 14.3821 266.323 14.1832C265.912 13.9844 265.398 13.8849 264.782 13.8849C263.94 13.8849 263.237 14.0739 262.674 14.4517C262.111 14.8229 261.829 15.3035 261.829 15.8935C261.829 16.4039 262.018 16.8149 262.396 17.1264C262.773 17.438 263.383 17.6932 264.225 17.892L266.651 18.4489C268.057 18.7737 269.104 19.2741 269.793 19.9503C270.483 20.6264 270.827 21.5047 270.827 22.5852C270.827 23.5 270.562 24.3153 270.032 25.0312C269.508 25.7405 268.776 26.2973 267.835 26.7017C266.9 27.1061 265.816 27.3082 264.583 27.3082C262.873 27.3082 261.478 26.9437 260.397 26.2145C259.317 25.4787 258.654 24.4347 258.408 23.0824L261.282 22.6449C261.461 23.3939 261.829 23.9607 262.386 24.3452C262.942 24.723 263.668 24.9119 264.563 24.9119C265.538 24.9119 266.317 24.7098 266.9 24.3054C267.483 23.8944 267.775 23.3939 267.775 22.804C267.775 22.3267 267.596 21.9257 267.238 21.6009C266.887 21.276 266.346 21.0308 265.617 20.8651L263.032 20.2983C261.607 19.9735 260.553 19.4564 259.87 18.7472C259.194 18.0379 258.856 17.1397 258.856 16.0526C258.856 15.151 259.108 14.3622 259.612 13.6861C260.115 13.0099 260.811 12.483 261.7 12.1051C262.588 11.7206 263.605 11.5284 264.752 11.5284C266.403 11.5284 267.702 11.8864 268.65 12.6023C269.598 13.3116 270.224 14.2628 270.529 15.456Z" fill="white"/>
<path d="M257.868 222.25C255.168 221.017 253.06 219.476 251.545 217.627C250.031 215.778 249.119 213.812 248.81 211.727C248.501 209.643 248.789 207.631 249.675 205.691C250.319 204.28 251.158 203.157 252.192 202.323C253.231 201.478 254.442 200.822 255.827 200.356C257.212 199.891 258.756 199.513 260.461 199.224L271.426 197.822C272.532 197.674 273.37 197.382 273.94 196.945C274.516 196.496 274.908 196.044 275.115 195.59C275.39 194.989 275.413 194.354 275.184 193.686C274.955 193.017 274.371 192.476 273.433 192.063C272.856 191.799 272.308 191.683 271.79 191.713C271.277 191.731 270.817 191.877 270.41 192.151C270.016 192.431 269.698 192.835 269.457 193.362C269.126 194.087 268.996 194.925 269.065 195.876C269.141 196.816 269.342 197.886 269.668 199.089C269.994 200.291 270.365 201.64 270.78 203.135L279.864 231.582L269.7 226.941L261.78 203.742C261.395 202.602 261.012 201.248 260.631 199.679C260.255 198.099 260.069 196.426 260.073 194.663C260.09 192.905 260.49 191.167 261.275 189.448C262.15 187.534 263.409 185.995 265.052 184.831C266.696 183.668 268.562 182.993 270.651 182.804C272.74 182.616 274.889 183.026 277.098 184.035C279.21 184.999 280.827 186.264 281.952 187.831C283.088 189.403 283.737 191.101 283.898 192.925C284.071 194.755 283.76 196.541 282.964 198.284C282.162 200.039 280.978 201.479 279.412 202.603C277.857 203.733 276.015 204.502 273.886 204.909L263.557 206.868C262.765 207.011 262.024 207.251 261.336 207.589C260.66 207.933 260.125 208.535 259.733 209.394C259.408 210.106 259.296 210.789 259.398 211.444C259.499 212.099 259.789 212.698 260.267 213.243C260.758 213.793 261.414 214.256 262.237 214.632C263.489 215.203 264.878 215.474 266.405 215.445C267.95 215.408 269.493 215.082 271.035 214.466C272.583 213.838 274.012 212.918 275.322 211.706C276.65 210.488 277.72 208.989 278.533 207.209L286.56 210.874C285.563 213.059 284.374 215.061 282.995 216.879C281.616 218.697 280.04 220.217 278.265 221.439C276.491 222.661 274.517 223.473 272.346 223.876C271.712 223.899 271.097 223.914 270.5 223.923C269.902 223.932 269.287 223.948 268.653 223.97C266.701 224.251 264.809 224.218 262.98 223.872C261.155 223.513 259.452 222.973 257.868 222.25Z" fill="#BF9B30"/>
</svg>
