<svg width="216" height="212" viewBox="0 0 216 212" fill="none" xmlns="http://www.w3.org/2000/svg">
<path d="M6.02273 19.2202C5 19.2202 4.10748 18.9858 3.34517 18.517C2.58286 18.0483 1.991 17.3925 1.5696 16.5497C1.1482 15.7069 0.9375 14.7221 0.9375 13.5952C0.9375 12.4635 1.1482 11.474 1.5696 10.6264C1.991 9.77888 2.58286 9.12074 3.34517 8.65199C4.10748 8.18324 5 7.94886 6.02273 7.94886C7.04545 7.94886 7.93797 8.18324 8.70028 8.65199C9.46259 9.12074 10.0545 9.77888 10.4759 10.6264C10.8973 11.474 11.108 12.4635 11.108 13.5952C11.108 14.7221 10.8973 15.7069 10.4759 16.5497C10.0545 17.3925 9.46259 18.0483 8.70028 18.517C7.93797 18.9858 7.04545 19.2202 6.02273 19.2202ZM6.02983 17.4375C6.69271 17.4375 7.24195 17.2623 7.67756 16.9119C8.11316 16.5616 8.43513 16.0952 8.64347 15.5128C8.85653 14.9304 8.96307 14.2888 8.96307 13.5881C8.96307 12.892 8.85653 12.2528 8.64347 11.6705C8.43513 11.0833 8.11316 10.6122 7.67756 10.2571C7.24195 9.90199 6.69271 9.72443 6.02983 9.72443C5.36222 9.72443 4.80824 9.90199 4.3679 10.2571C3.93229 10.6122 3.60795 11.0833 3.39489 11.6705C3.18655 12.2528 3.08239 12.892 3.08239 13.5881C3.08239 14.2888 3.18655 14.9304 3.39489 15.5128C3.60795 16.0952 3.93229 16.5616 4.3679 16.9119C4.80824 17.2623 5.36222 17.4375 6.02983 17.4375ZM15.6019 12.5227V19H13.4783V8.09091H15.5167V9.86648H15.6516C15.9026 9.28883 16.2956 8.82481 16.8306 8.47443C17.3704 8.12405 18.0498 7.94886 18.869 7.94886C19.6123 7.94886 20.2634 8.10511 20.8221 8.41761C21.3808 8.72538 21.814 9.18466 22.1218 9.79545C22.4296 10.4062 22.5835 11.1615 22.5835 12.0611V19H20.4599V12.3168C20.4599 11.526 20.2539 10.9081 19.842 10.4631C19.43 10.0133 18.8642 9.78835 18.1445 9.78835C17.6521 9.78835 17.2141 9.89489 16.8306 10.108C16.4518 10.321 16.1512 10.6335 15.9286 11.0455C15.7108 11.4527 15.6019 11.9451 15.6019 12.5227ZM27.555 4.45455V19H25.4315V4.45455H27.555ZM31.7543 23.0909C31.437 23.0909 31.1482 23.0649 30.8878 23.0128C30.6274 22.9654 30.4332 22.9134 30.3054 22.8565L30.8168 21.1165C31.205 21.2206 31.5507 21.2656 31.8537 21.2514C32.1567 21.2372 32.4242 21.1236 32.6562 20.9105C32.893 20.6974 33.1013 20.3494 33.2812 19.8665L33.544 19.142L29.5526 8.09091H31.8253L34.5881 16.5568H34.7017L37.4645 8.09091H39.7443L35.2486 20.456C35.0402 21.0241 34.7751 21.5047 34.4531 21.8977C34.1312 22.2955 33.7476 22.5938 33.3026 22.7926C32.8575 22.9915 32.3414 23.0909 31.7543 23.0909ZM52.2248 8.09091V9.79545H46.06V8.09091H52.2248ZM47.7504 19V6.8267C47.7504 6.14489 47.8995 5.57907 48.1978 5.12926C48.4961 4.67472 48.8915 4.33617 49.3839 4.11364C49.8763 3.88636 50.4113 3.77273 50.989 3.77273C51.4151 3.77273 51.7797 3.80824 52.0827 3.87926C52.3858 3.94555 52.6107 4.0071 52.7575 4.06392L52.2603 5.78267C52.1609 5.75426 52.033 5.72112 51.8768 5.68324C51.7205 5.64062 51.5311 5.61932 51.3086 5.61932C50.7925 5.61932 50.4232 5.74716 50.2006 6.00284C49.9828 6.25852 49.8739 6.62784 49.8739 7.1108V19H47.7504ZM58.5813 19.2202C57.5586 19.2202 56.6661 18.9858 55.9038 18.517C55.1415 18.0483 54.5496 17.3925 54.1282 16.5497C53.7068 15.7069 53.4961 14.7221 53.4961 13.5952C53.4961 12.4635 53.7068 11.474 54.1282 10.6264C54.5496 9.77888 55.1415 9.12074 55.9038 8.65199C56.6661 8.18324 57.5586 7.94886 58.5813 7.94886C59.604 7.94886 60.4966 8.18324 61.2589 8.65199C62.0212 9.12074 62.613 9.77888 63.0344 10.6264C63.4558 11.474 63.6665 12.4635 63.6665 13.5952C63.6665 14.7221 63.4558 15.7069 63.0344 16.5497C62.613 17.3925 62.0212 18.0483 61.2589 18.517C60.4966 18.9858 59.604 19.2202 58.5813 19.2202ZM58.5884 17.4375C59.2513 17.4375 59.8005 17.2623 60.2362 16.9119C60.6718 16.5616 60.9937 16.0952 61.2021 15.5128C61.4151 14.9304 61.5217 14.2888 61.5217 13.5881C61.5217 12.892 61.4151 12.2528 61.2021 11.6705C60.9937 11.0833 60.6718 10.6122 60.2362 10.2571C59.8005 9.90199 59.2513 9.72443 58.5884 9.72443C57.9208 9.72443 57.3668 9.90199 56.9265 10.2571C56.4909 10.6122 56.1665 11.0833 55.9535 11.6705C55.7451 12.2528 55.641 12.892 55.641 13.5881C55.641 14.2888 55.7451 14.9304 55.9535 15.5128C56.1665 16.0952 56.4909 16.5616 56.9265 16.9119C57.3668 17.2623 57.9208 17.4375 58.5884 17.4375ZM66.0369 19V8.09091H68.0895V9.82386H68.2031C68.402 9.23674 68.7524 8.77509 69.2543 8.43892C69.7609 8.09801 70.3338 7.92756 70.973 7.92756C71.1056 7.92756 71.2618 7.93229 71.4418 7.94176C71.6264 7.95123 71.7708 7.96307 71.875 7.97727V10.0085C71.7898 9.98485 71.6383 9.95881 71.4205 9.9304C71.2027 9.89725 70.9848 9.88068 70.767 9.88068C70.2652 9.88068 69.8177 9.98722 69.4247 10.2003C69.0365 10.4086 68.7287 10.6998 68.5014 11.0739C68.2741 11.4432 68.1605 11.8646 68.1605 12.3381V19H66.0369ZM78.5866 9V7.63636C78.5866 7.2339 78.6624 6.81013 78.8139 6.36506C78.9654 5.91998 79.1761 5.49384 79.446 5.08665C79.7159 4.67945 80.0331 4.33144 80.3977 4.04261L81.4489 4.79545C81.16 5.21686 80.9138 5.6572 80.7102 6.11648C80.5066 6.57576 80.4048 7.07528 80.4048 7.61506V9H78.5866ZM91.3867 8.27557C91.311 7.60322 90.9985 7.08239 90.4492 6.71307C89.9 6.33902 89.2087 6.15199 88.3754 6.15199C87.7788 6.15199 87.2627 6.24669 86.8271 6.43608C86.3915 6.62074 86.0529 6.87642 85.8114 7.20312C85.5747 7.52509 85.4563 7.89205 85.4563 8.30398C85.4563 8.64962 85.5368 8.94792 85.6978 9.19886C85.8635 9.44981 86.079 9.66051 86.3441 9.83097C86.614 9.99669 86.9028 10.1364 87.2106 10.25C87.5183 10.3589 87.8143 10.4489 88.0984 10.5199L89.5188 10.8892C89.9828 11.0028 90.4587 11.1567 90.9464 11.3509C91.4341 11.545 91.8862 11.8007 92.3029 12.1179C92.7196 12.4351 93.0558 12.8281 93.3114 13.2969C93.5719 13.7656 93.7021 14.3267 93.7021 14.9801C93.7021 15.804 93.489 16.5355 93.0629 17.1747C92.6415 17.8139 92.0283 18.3182 91.2234 18.6875C90.4232 19.0568 89.4549 19.2415 88.3185 19.2415C87.2295 19.2415 86.2873 19.0687 85.4918 18.723C84.6964 18.3774 84.0737 17.8873 83.6239 17.2528C83.1741 16.6136 82.9255 15.8561 82.8782 14.9801H85.0799C85.1225 15.5057 85.293 15.9437 85.5913 16.294C85.8943 16.6397 86.2802 16.8977 86.7489 17.0682C87.2224 17.2339 87.7409 17.3168 88.3043 17.3168C88.9246 17.3168 89.4762 17.2197 89.9592 17.0256C90.4469 16.8267 90.8304 16.5521 91.1097 16.2017C91.3891 15.8466 91.5288 15.4323 91.5288 14.9588C91.5288 14.5279 91.4057 14.1752 91.1594 13.9006C90.918 13.6259 90.5889 13.3987 90.1722 13.2188C89.7603 13.0388 89.2939 12.8802 88.7731 12.7429L87.0543 12.2741C85.8896 11.9569 84.9663 11.4905 84.2844 10.875C83.6074 10.2595 83.2688 9.44508 83.2688 8.43182C83.2688 7.59375 83.4961 6.86222 83.9506 6.23722C84.4052 5.61222 85.0207 5.12689 85.7972 4.78125C86.5737 4.43087 87.4497 4.25568 88.4251 4.25568C89.4099 4.25568 90.2788 4.4285 91.0316 4.77415C91.7892 5.11979 92.3858 5.59564 92.8214 6.2017C93.257 6.80303 93.4843 7.49432 93.5032 8.27557H91.3867ZM98.2777 12.5227V19H96.1541V4.45455H98.2493V9.86648H98.3842C98.6399 9.27936 99.0305 8.81297 99.5561 8.46733C100.082 8.12169 100.768 7.94886 101.616 7.94886C102.364 7.94886 103.017 8.10275 103.576 8.41051C104.139 8.71828 104.575 9.17756 104.883 9.78835C105.195 10.3944 105.352 11.152 105.352 12.0611V19H103.228V12.3168C103.228 11.5166 103.022 10.8963 102.61 10.456C102.198 10.0109 101.625 9.78835 100.891 9.78835C100.389 9.78835 99.9396 9.89489 99.5419 10.108C99.1489 10.321 98.8388 10.6335 98.6115 11.0455C98.389 11.4527 98.2777 11.9451 98.2777 12.5227ZM112.887 19.2202C111.812 19.2202 110.887 18.9905 110.11 18.5312C109.338 18.0672 108.742 17.4162 108.32 16.5781C107.904 15.7353 107.695 14.7481 107.695 13.6165C107.695 12.4991 107.904 11.5142 108.32 10.6619C108.742 9.80966 109.329 9.14441 110.082 8.66619C110.839 8.18797 111.725 7.94886 112.738 7.94886C113.353 7.94886 113.95 8.05066 114.528 8.25426C115.105 8.45786 115.624 8.77746 116.083 9.21307C116.542 9.64867 116.905 10.2145 117.17 10.9105C117.435 11.6018 117.567 12.4422 117.567 13.4318V14.1847H108.896V12.5938H115.487C115.487 12.035 115.373 11.5402 115.146 11.1094C114.918 10.6738 114.599 10.3305 114.187 10.0795C113.78 9.8286 113.301 9.70312 112.752 9.70312C112.156 9.70312 111.635 9.84991 111.19 10.1435C110.749 10.4323 110.408 10.8111 110.167 11.2798C109.93 11.7438 109.812 12.2481 109.812 12.7926V14.0355C109.812 14.7647 109.94 15.3849 110.195 15.8963C110.456 16.4077 110.818 16.7983 111.282 17.0682C111.746 17.3333 112.288 17.4659 112.908 17.4659C113.311 17.4659 113.678 17.4091 114.009 17.2955C114.341 17.1771 114.627 17.0019 114.869 16.7699C115.11 16.5379 115.295 16.2514 115.423 15.9105L117.433 16.2727C117.272 16.8646 116.983 17.383 116.566 17.8281C116.154 18.2685 115.636 18.6117 115.011 18.858C114.39 19.0994 113.683 19.2202 112.887 19.2202ZM121.749 4.45455V5.81818C121.749 6.22064 121.673 6.64441 121.522 7.08949C121.375 7.52983 121.167 7.9536 120.897 8.3608C120.627 8.76799 120.31 9.11837 119.945 9.41193L118.894 8.65909C119.173 8.25189 119.415 7.81866 119.618 7.35938C119.827 6.90009 119.931 6.39347 119.931 5.83949V4.45455H121.749ZM131.566 19L128.356 8.09091H130.55L132.688 16.1023H132.795L134.94 8.09091H137.134L139.265 16.0668H139.371L141.495 8.09091H143.69L140.487 19H138.32L136.104 11.1236H135.941L133.725 19H131.566ZM147.828 12.5227V19H145.705V4.45455H147.8V9.86648H147.935C148.191 9.27936 148.581 8.81297 149.107 8.46733C149.632 8.12169 150.319 7.94886 151.167 7.94886C151.915 7.94886 152.568 8.10275 153.127 8.41051C153.69 8.71828 154.126 9.17756 154.434 9.78835C154.746 10.3944 154.902 11.152 154.902 12.0611V19H152.779V12.3168C152.779 11.5166 152.573 10.8963 152.161 10.456C151.749 10.0109 151.176 9.78835 150.442 9.78835C149.94 9.78835 149.49 9.89489 149.093 10.108C148.7 10.321 148.39 10.6335 148.162 11.0455C147.94 11.4527 147.828 11.9451 147.828 12.5227ZM162.331 19.2202C161.309 19.2202 160.416 18.9858 159.654 18.517C158.891 18.0483 158.3 17.3925 157.878 16.5497C157.457 15.7069 157.246 14.7221 157.246 13.5952C157.246 12.4635 157.457 11.474 157.878 10.6264C158.3 9.77888 158.891 9.12074 159.654 8.65199C160.416 8.18324 161.309 7.94886 162.331 7.94886C163.354 7.94886 164.247 8.18324 165.009 8.65199C165.771 9.12074 166.363 9.77888 166.784 10.6264C167.206 11.474 167.417 12.4635 167.417 13.5952C167.417 14.7221 167.206 15.7069 166.784 16.5497C166.363 17.3925 165.771 18.0483 165.009 18.517C164.247 18.9858 163.354 19.2202 162.331 19.2202ZM162.338 17.4375C163.001 17.4375 163.551 17.2623 163.986 16.9119C164.422 16.5616 164.744 16.0952 164.952 15.5128C165.165 14.9304 165.272 14.2888 165.272 13.5881C165.272 12.892 165.165 12.2528 164.952 11.6705C164.744 11.0833 164.422 10.6122 163.986 10.2571C163.551 9.90199 163.001 9.72443 162.338 9.72443C161.671 9.72443 161.117 9.90199 160.676 10.2571C160.241 10.6122 159.917 11.0833 159.703 11.6705C159.495 12.2528 159.391 12.892 159.391 13.5881C159.391 14.2888 159.495 14.9304 159.703 15.5128C159.917 16.0952 160.241 16.5616 160.676 16.9119C161.117 17.2623 161.671 17.4375 162.338 17.4375ZM175.08 19V8.09091H177.203V19H175.08ZM176.152 6.40767C175.783 6.40767 175.466 6.28456 175.201 6.03835C174.94 5.7874 174.81 5.48911 174.81 5.14347C174.81 4.79309 174.94 4.49479 175.201 4.24858C175.466 3.99763 175.783 3.87216 176.152 3.87216C176.522 3.87216 176.837 3.99763 177.097 4.24858C177.362 4.49479 177.495 4.79309 177.495 5.14347C177.495 5.48911 177.362 5.7874 177.097 6.03835C176.837 6.28456 176.522 6.40767 176.152 6.40767ZM188.235 10.7543L186.31 11.0952C186.23 10.849 186.102 10.6146 185.927 10.392C185.756 10.1695 185.524 9.98722 185.231 9.84517C184.937 9.70312 184.57 9.6321 184.13 9.6321C183.529 9.6321 183.027 9.76705 182.624 10.0369C182.222 10.3021 182.021 10.6454 182.021 11.0668C182.021 11.4313 182.156 11.7249 182.425 11.9474C182.695 12.17 183.131 12.3523 183.732 12.4943L185.465 12.892C186.469 13.1241 187.217 13.4815 187.71 13.9645C188.202 14.4474 188.448 15.0748 188.448 15.8466C188.448 16.5 188.259 17.0824 187.88 17.5938C187.506 18.1004 186.983 18.4981 186.31 18.7869C185.643 19.0758 184.869 19.2202 183.988 19.2202C182.766 19.2202 181.77 18.9598 180.998 18.4389C180.226 17.9134 179.753 17.1676 179.577 16.2017L181.63 15.8892C181.758 16.4242 182.021 16.8291 182.418 17.1037C182.816 17.3736 183.335 17.5085 183.974 17.5085C184.67 17.5085 185.226 17.3641 185.643 17.0753C186.059 16.7817 186.268 16.4242 186.268 16.0028C186.268 15.6619 186.14 15.3755 185.884 15.1435C185.633 14.9115 185.247 14.7363 184.727 14.6179L182.88 14.2131C181.862 13.9811 181.109 13.6117 180.621 13.1051C180.138 12.5985 179.897 11.9569 179.897 11.1804C179.897 10.5365 180.077 9.97301 180.437 9.49006C180.797 9.0071 181.294 8.63068 181.928 8.3608C182.563 8.08617 183.29 7.94886 184.109 7.94886C185.288 7.94886 186.216 8.20455 186.893 8.71591C187.57 9.22254 188.017 9.90199 188.235 10.7543Z" fill="white"/>
<path d="M3.65625 87V30.2727H28.2528C32.5739 30.2727 36.2024 30.8544 39.1385 32.0178C42.093 33.1811 44.3182 34.8246 45.8139 36.9482C47.3281 39.0717 48.0852 41.5739 48.0852 44.4545C48.0852 46.5412 47.6236 48.4432 46.7003 50.1605C45.7955 51.8778 44.5213 53.3182 42.8778 54.4815C41.2344 55.6264 39.3139 56.4205 37.1165 56.8636V57.4176C39.554 57.5099 41.7699 58.1286 43.7642 59.2734C45.7585 60.3999 47.3466 61.9602 48.5284 63.9545C49.7102 65.9304 50.3011 68.2571 50.3011 70.9347C50.3011 74.0369 49.4886 76.7976 47.8636 79.2166C46.2571 81.6357 43.9673 83.5376 40.9943 84.9226C38.0213 86.3075 34.4759 87 30.358 87H3.65625ZM19.0568 74.7017H26.2585C28.8438 74.7017 30.7827 74.2216 32.0753 73.2614C33.3679 72.2827 34.0142 70.8423 34.0142 68.9403C34.0142 67.6108 33.7095 66.4844 33.1001 65.5611C32.4908 64.6378 31.6229 63.9361 30.4964 63.456C29.3885 62.9759 28.0497 62.7358 26.4801 62.7358H19.0568V74.7017ZM19.0568 53.2074H25.3722C26.7202 53.2074 27.9112 52.995 28.9453 52.5703C29.9794 52.1456 30.7827 51.5362 31.3551 50.7422C31.946 49.9297 32.2415 48.9418 32.2415 47.7784C32.2415 46.0241 31.6136 44.6854 30.358 43.7621C29.1023 42.8203 27.5142 42.3494 25.5938 42.3494H19.0568V53.2074ZM110.712 58.6364C110.712 64.9517 109.484 70.2791 107.028 74.6186C104.572 78.9396 101.258 82.2173 97.0845 84.4517C92.9112 86.6676 88.2578 87.7756 83.1243 87.7756C77.9538 87.7756 73.282 86.6584 69.1087 84.424C64.9538 82.1712 61.6484 78.8842 59.1925 74.5632C56.755 70.2237 55.5362 64.9148 55.5362 58.6364C55.5362 52.321 56.755 47.0028 59.1925 42.6818C61.6484 38.3423 64.9538 35.0646 69.1087 32.8487C73.282 30.6143 77.9538 29.4972 83.1243 29.4972C88.2578 29.4972 92.9112 30.6143 97.0845 32.8487C101.258 35.0646 104.572 38.3423 107.028 42.6818C109.484 47.0028 110.712 52.321 110.712 58.6364ZM94.8686 58.6364C94.8686 55.2386 94.4162 52.3764 93.5114 50.0497C92.625 47.7045 91.3047 45.9318 89.5504 44.7315C87.8146 43.5128 85.6726 42.9034 83.1243 42.9034C80.576 42.9034 78.4247 43.5128 76.6705 44.7315C74.9347 45.9318 73.6143 47.7045 72.7095 50.0497C71.8232 52.3764 71.38 55.2386 71.38 58.6364C71.38 62.0341 71.8232 64.9055 72.7095 67.2507C73.6143 69.5774 74.9347 71.3501 76.6705 72.5689C78.4247 73.7692 80.576 74.3693 83.1243 74.3693C85.6726 74.3693 87.8146 73.7692 89.5504 72.5689C91.3047 71.3501 92.625 69.5774 93.5114 67.2507C94.4162 64.9055 94.8686 62.0341 94.8686 58.6364ZM117.838 87V30.2727H133.238V74.5909H156.173V87H117.838ZM184.225 87H162.398V30.2727H184.004C189.839 30.2727 194.88 31.4084 199.127 33.6797C203.393 35.9325 206.68 39.1825 208.988 43.4297C211.315 47.6584 212.478 52.7273 212.478 58.6364C212.478 64.5455 211.324 69.6236 209.016 73.8707C206.707 78.0994 203.439 81.3494 199.21 83.6207C194.982 85.8736 189.987 87 184.225 87ZM177.799 73.9261H183.671C186.478 73.9261 188.869 73.4737 190.845 72.5689C192.839 71.6641 194.354 70.1037 195.388 67.8878C196.44 65.6719 196.967 62.5881 196.967 58.6364C196.967 54.6847 196.431 51.6009 195.36 49.3849C194.308 47.169 192.756 45.6087 190.707 44.7038C188.675 43.799 186.183 43.3466 183.228 43.3466H177.799V73.9261ZM2.25 129V94.0909H17.3864C20.0455 94.0909 22.2784 94.4489 24.0852 95.1648C25.9034 95.8807 27.2727 96.892 28.1932 98.1989C29.125 99.5057 29.5909 101.045 29.5909 102.818C29.5909 104.102 29.3068 105.273 28.7386 106.33C28.1818 107.386 27.3977 108.273 26.3864 108.989C25.375 109.693 24.1932 110.182 22.8409 110.455V110.795C24.3409 110.852 25.7045 111.233 26.9318 111.938C28.1591 112.631 29.1364 113.591 29.8636 114.818C30.5909 116.034 30.9545 117.466 30.9545 119.114C30.9545 121.023 30.4545 122.722 29.4545 124.21C28.4659 125.699 27.0568 126.869 25.2273 127.722C23.3977 128.574 21.2159 129 18.6818 129H2.25ZM11.7273 121.432H16.1591C17.75 121.432 18.9432 121.136 19.7386 120.545C20.5341 119.943 20.9318 119.057 20.9318 117.886C20.9318 117.068 20.7443 116.375 20.3693 115.807C19.9943 115.239 19.4602 114.807 18.767 114.511C18.0852 114.216 17.2614 114.068 16.2955 114.068H11.7273V121.432ZM11.7273 108.205H15.6136C16.4432 108.205 17.1761 108.074 17.8125 107.812C18.4489 107.551 18.9432 107.176 19.2955 106.688C19.6591 106.188 19.8409 105.58 19.8409 104.864C19.8409 103.784 19.4545 102.96 18.6818 102.392C17.9091 101.812 16.9318 101.523 15.75 101.523H11.7273V108.205ZM34.3125 129V94.0909H49.3807C51.9716 94.0909 54.2386 94.5625 56.1818 95.5057C58.125 96.4489 59.6364 97.8068 60.7159 99.5795C61.7955 101.352 62.3352 103.477 62.3352 105.955C62.3352 108.455 61.7784 110.562 60.6648 112.278C59.5625 113.994 58.0114 115.29 56.0114 116.165C54.0227 117.04 51.6989 117.477 49.0398 117.477H40.0398V110.114H47.1307C48.2443 110.114 49.1932 109.977 49.9773 109.705C50.7727 109.42 51.3807 108.972 51.8011 108.358C52.233 107.744 52.4489 106.943 52.4489 105.955C52.4489 104.955 52.233 104.142 51.8011 103.517C51.3807 102.881 50.7727 102.415 49.9773 102.119C49.1932 101.812 48.2443 101.659 47.1307 101.659H43.7898V129H34.3125ZM54.767 112.977L63.4943 129H53.1989L44.6761 112.977H54.767ZM75.4432 129H65.2159L76.7386 94.0909H89.6932L101.216 129H90.9886L83.3523 103.705H83.0795L75.4432 129ZM73.5341 115.227H92.7614V122.318H73.5341V115.227ZM114.055 94.0909V129H104.578V94.0909H114.055ZM148.751 94.0909V129H140.842L128.229 110.659H128.024V129H118.547V94.0909H126.592L139.001 112.364H139.274V94.0909H148.751ZM151.803 94.0909H162.371L169.189 108.273H169.462L176.28 94.0909H186.848L174.03 118.023V129H164.621V118.023L151.803 94.0909ZM2.25 171V136.091H17.3864C20.0455 136.091 22.2784 136.449 24.0852 137.165C25.9034 137.881 27.2727 138.892 28.1932 140.199C29.125 141.506 29.5909 143.045 29.5909 144.818C29.5909 146.102 29.3068 147.273 28.7386 148.33C28.1818 149.386 27.3977 150.273 26.3864 150.989C25.375 151.693 24.1932 152.182 22.8409 152.455V152.795C24.3409 152.852 25.7045 153.233 26.9318 153.938C28.1591 154.631 29.1364 155.591 29.8636 156.818C30.5909 158.034 30.9545 159.466 30.9545 161.114C30.9545 163.023 30.4545 164.722 29.4545 166.21C28.4659 167.699 27.0568 168.869 25.2273 169.722C23.3977 170.574 21.2159 171 18.6818 171H2.25ZM11.7273 163.432H16.1591C17.75 163.432 18.9432 163.136 19.7386 162.545C20.5341 161.943 20.9318 161.057 20.9318 159.886C20.9318 159.068 20.7443 158.375 20.3693 157.807C19.9943 157.239 19.4602 156.807 18.767 156.511C18.0852 156.216 17.2614 156.068 16.2955 156.068H11.7273V163.432ZM11.7273 150.205H15.6136C16.4432 150.205 17.1761 150.074 17.8125 149.812C18.4489 149.551 18.9432 149.176 19.2955 148.688C19.6591 148.188 19.8409 147.58 19.8409 146.864C19.8409 145.784 19.4545 144.96 18.6818 144.392C17.9091 143.812 16.9318 143.523 15.75 143.523H11.7273V150.205ZM34.3125 171V136.091H49.3807C51.9716 136.091 54.2386 136.562 56.1818 137.506C58.125 138.449 59.6364 139.807 60.7159 141.58C61.7955 143.352 62.3352 145.477 62.3352 147.955C62.3352 150.455 61.7784 152.562 60.6648 154.278C59.5625 155.994 58.0114 157.29 56.0114 158.165C54.0227 159.04 51.6989 159.477 49.0398 159.477H40.0398V152.114H47.1307C48.2443 152.114 49.1932 151.977 49.9773 151.705C50.7727 151.42 51.3807 150.972 51.8011 150.358C52.233 149.744 52.4489 148.943 52.4489 147.955C52.4489 146.955 52.233 146.142 51.8011 145.517C51.3807 144.881 50.7727 144.415 49.9773 144.119C49.1932 143.812 48.2443 143.659 47.1307 143.659H43.7898V171H34.3125ZM54.767 154.977L63.4943 171H53.1989L44.6761 154.977H54.767ZM75.4432 171H65.2159L76.7386 136.091H89.6932L101.216 171H90.9886L83.3523 145.705H83.0795L75.4432 171ZM73.5341 157.227H92.7614V164.318H73.5341V157.227ZM109.061 136.091L116.22 160.705H116.493L123.652 136.091H134.357L122.834 171H109.879L98.3565 136.091H109.061ZM137.719 171V136.091H162.878V143.727H147.196V149.727H161.582V157.364H147.196V163.364H162.81V171H137.719ZM2.95632 207V180.091H12.8107C14.7203 180.091 16.3014 180.406 17.554 181.037C18.8066 181.659 19.7438 182.504 20.3658 183.573C20.9877 184.633 21.2987 185.828 21.2987 187.16C21.2987 188.281 21.0928 189.227 20.6811 189.998C20.2694 190.76 19.7176 191.373 19.0256 191.837C18.3423 192.293 17.589 192.626 16.7656 192.836V193.099C17.6591 193.143 18.5307 193.432 19.3803 193.966C20.2388 194.491 20.9483 195.24 21.5089 196.213C22.0695 197.185 22.3498 198.368 22.3498 199.76C22.3498 201.136 22.0257 202.371 21.3775 203.466C20.738 204.552 19.7482 205.415 18.408 206.054C17.0678 206.685 15.3554 207 13.2706 207H2.95632ZM7.01634 203.518H12.8764C14.821 203.518 16.2138 203.141 17.0547 202.388C17.8956 201.635 18.3161 200.693 18.3161 199.563C18.3161 198.714 18.1014 197.934 17.6722 197.224C17.243 196.515 16.6299 195.95 15.8327 195.529C15.0444 195.109 14.1071 194.899 13.021 194.899H7.01634V203.518ZM7.01634 191.732H12.456C13.367 191.732 14.186 191.557 14.913 191.207C15.6488 190.856 16.2313 190.366 16.6605 189.735C17.0985 189.096 17.3175 188.342 17.3175 187.475C17.3175 186.363 16.9277 185.43 16.1481 184.676C15.3685 183.923 14.1728 183.547 12.5611 183.547H7.01634V191.732ZM27.1653 207V180.091H44.036V183.586H31.2253V191.785H43.1557V195.267H31.2253V203.505H44.1937V207H27.1653ZM51.7323 207H47.4227L57.1063 180.091H61.797L71.4806 207H67.1709L59.5633 184.979H59.3531L51.7323 207ZM52.455 196.462H66.4351V199.879H52.455V196.462ZM92.6708 180.091H96.744V197.789C96.744 199.673 96.3016 201.341 95.4169 202.795C94.5322 204.241 93.2884 205.379 91.6854 206.212C90.0824 207.035 88.2035 207.447 86.0487 207.447C83.9026 207.447 82.0281 207.035 80.4251 206.212C78.8221 205.379 77.5782 204.241 76.6935 202.795C75.8088 201.341 75.3665 199.673 75.3665 197.789V180.091H79.4265V197.461C79.4265 198.679 79.6937 199.76 80.228 200.706C80.7711 201.652 81.5375 202.397 82.5273 202.94C83.5172 203.474 84.6909 203.741 86.0487 203.741C87.4151 203.741 88.5933 203.474 89.5831 202.94C90.5817 202.397 91.3438 201.652 91.8693 200.706C92.4036 199.76 92.6708 198.679 92.6708 197.461V180.091ZM101.32 183.586V180.091H122.145V183.586H113.749V207H109.703V183.586H101.32ZM130.807 180.091V207H126.747V180.091H130.807ZM136.72 207V180.091H153.407V183.586H140.78V191.785H152.211V195.267H140.78V207H136.72ZM175.704 180.091H179.777V197.789C179.777 199.673 179.335 201.341 178.45 202.795C177.565 204.241 176.322 205.379 174.719 206.212C173.116 207.035 171.237 207.447 169.082 207.447C166.936 207.447 165.061 207.035 163.458 206.212C161.855 205.379 160.611 204.241 159.727 202.795C158.842 201.341 158.4 199.673 158.4 197.789V180.091H162.46V197.461C162.46 198.679 162.727 199.76 163.261 200.706C163.804 201.652 164.571 202.397 165.561 202.94C166.55 203.474 167.724 203.741 169.082 203.741C170.448 203.741 171.626 203.474 172.616 202.94C173.615 202.397 174.377 201.652 174.903 200.706C175.437 199.76 175.704 198.679 175.704 197.461V180.091ZM185.68 207V180.091H189.74V203.505H201.933V207H185.68Z" fill="url(#paint0_linear_144_19)"/>
<path d="M174.045 164.283C172.008 163.352 170.418 162.19 169.276 160.795C168.133 159.401 167.445 157.917 167.212 156.345C166.979 154.772 167.196 153.254 167.864 151.791C168.351 150.726 168.984 149.88 169.763 149.251C170.547 148.613 171.461 148.118 172.506 147.767C173.55 147.416 174.715 147.131 176.001 146.912L184.273 145.855C185.107 145.743 185.74 145.523 186.17 145.193C186.604 144.855 186.9 144.514 187.056 144.171C187.263 143.717 187.281 143.239 187.108 142.734C186.935 142.23 186.495 141.822 185.787 141.51C185.352 141.311 184.939 141.223 184.548 141.246C184.161 141.26 183.814 141.37 183.507 141.577C183.209 141.788 182.969 142.092 182.788 142.491C182.538 143.037 182.44 143.669 182.492 144.387C182.549 145.096 182.701 145.903 182.947 146.81C183.193 147.717 183.473 148.735 183.786 149.863L190.639 171.323L182.971 167.821L176.996 150.321C176.706 149.461 176.417 148.439 176.13 147.256C175.846 146.063 175.706 144.802 175.709 143.472C175.721 142.146 176.024 140.834 176.616 139.538C177.275 138.093 178.225 136.932 179.465 136.055C180.705 135.178 182.113 134.668 183.689 134.526C185.264 134.383 186.886 134.693 188.552 135.454C190.145 136.181 191.366 137.136 192.214 138.318C193.071 139.504 193.56 140.785 193.682 142.161C193.812 143.541 193.578 144.888 192.977 146.203C192.372 147.528 191.479 148.614 190.297 149.462C189.125 150.314 187.735 150.894 186.129 151.201L178.337 152.679C177.739 152.787 177.181 152.968 176.661 153.223C176.151 153.483 175.748 153.936 175.452 154.585C175.207 155.122 175.123 155.637 175.199 156.131C175.276 156.625 175.495 157.077 175.855 157.488C176.225 157.903 176.721 158.253 177.341 158.536C178.286 158.967 179.334 159.172 180.485 159.149C181.651 159.122 182.815 158.876 183.978 158.411C185.146 157.937 186.224 157.243 187.212 156.329C188.214 155.41 189.021 154.279 189.634 152.936L195.69 155.701C194.938 157.35 194.041 158.86 193.001 160.231C191.961 161.603 190.771 162.749 189.432 163.671C188.094 164.593 186.605 165.206 184.967 165.51C184.489 165.527 184.025 165.538 183.574 165.545C183.124 165.552 182.659 165.564 182.182 165.581C180.709 165.792 179.282 165.767 177.901 165.506C176.525 165.236 175.24 164.828 174.045 164.283Z" fill="white"/>
<defs>
<linearGradient id="paint0_linear_144_19" x1="226" y1="25" x2="-11.5" y2="195.5" gradientUnits="userSpaceOnUse">
<stop stop-color="#CC3300"/>
<stop offset="1" stop-color="#F2A400"/>
</linearGradient>
</defs>
</svg>
