<svg width="282" height="271" viewBox="0 0 282 271" fill="none" xmlns="http://www.w3.org/2000/svg">
<path d="M136.5 261C206.283 261 263 204.893 263 135.5C263 66.1072 206.283 10 136.5 10C66.7174 10 10 66.1072 10 135.5C10 204.893 66.7174 261 136.5 261Z" fill="url(#paint0_linear_149_15)" stroke="white" stroke-width="20"/>
<path d="M60.8182 75.1761C60 75.1761 59.286 74.9886 58.6761 74.6136C58.0663 74.2386 57.5928 73.714 57.2557 73.0398C56.9186 72.3655 56.75 71.5777 56.75 70.6761C56.75 69.7708 56.9186 68.9792 57.2557 68.3011C57.5928 67.6231 58.0663 67.0966 58.6761 66.7216C59.286 66.3466 60 66.1591 60.8182 66.1591C61.6364 66.1591 62.3504 66.3466 62.9602 66.7216C63.5701 67.0966 64.0436 67.6231 64.3807 68.3011C64.7178 68.9792 64.8864 69.7708 64.8864 70.6761C64.8864 71.5777 64.7178 72.3655 64.3807 73.0398C64.0436 73.714 63.5701 74.2386 62.9602 74.6136C62.3504 74.9886 61.6364 75.1761 60.8182 75.1761ZM60.8239 73.75C61.3542 73.75 61.7936 73.6098 62.142 73.3295C62.4905 73.0492 62.7481 72.6761 62.9148 72.2102C63.0852 71.7443 63.1705 71.2311 63.1705 70.6705C63.1705 70.1136 63.0852 69.6023 62.9148 69.1364C62.7481 68.6667 62.4905 68.2898 62.142 68.0057C61.7936 67.7216 61.3542 67.5795 60.8239 67.5795C60.2898 67.5795 59.8466 67.7216 59.4943 68.0057C59.1458 68.2898 58.8864 68.6667 58.7159 69.1364C58.5492 69.6023 58.4659 70.1136 58.4659 70.6705C58.4659 71.2311 58.5492 71.7443 58.7159 72.2102C58.8864 72.6761 59.1458 73.0492 59.4943 73.3295C59.8466 73.6098 60.2898 73.75 60.8239 73.75ZM68.4815 69.8182V75H66.7827V66.2727H68.4134V67.6932H68.5213C68.7221 67.2311 69.0365 66.8598 69.4645 66.5795C69.8963 66.2992 70.4399 66.1591 71.0952 66.1591C71.6899 66.1591 72.2107 66.2841 72.6577 66.5341C73.1046 66.7803 73.4512 67.1477 73.6974 67.6364C73.9437 68.125 74.0668 68.7292 74.0668 69.4489V75H72.3679V69.6534C72.3679 69.0208 72.2031 68.5265 71.8736 68.1705C71.544 67.8106 71.0914 67.6307 70.5156 67.6307C70.1217 67.6307 69.7713 67.7159 69.4645 67.8864C69.1615 68.0568 68.9209 68.3068 68.7429 68.6364C68.5687 68.9621 68.4815 69.3561 68.4815 69.8182ZM78.044 63.3636V75H76.3452V63.3636H78.044ZM81.4034 78.2727C81.1496 78.2727 80.9186 78.2519 80.7102 78.2102C80.5019 78.1723 80.3466 78.1307 80.2443 78.0852L80.6534 76.6932C80.964 76.7765 81.2405 76.8125 81.483 76.8011C81.7254 76.7898 81.9394 76.6989 82.125 76.5284C82.3144 76.358 82.4811 76.0795 82.625 75.6932L82.8352 75.1136L79.642 66.2727H81.4602L83.6705 73.0455H83.7614L85.9716 66.2727H87.7955L84.1989 76.1648C84.0322 76.6193 83.8201 77.0038 83.5625 77.3182C83.3049 77.6364 82.9981 77.875 82.642 78.0341C82.286 78.1932 81.8731 78.2727 81.4034 78.2727ZM97.7798 66.2727V67.6364H92.848V66.2727H97.7798ZM94.2003 75V65.2614C94.2003 64.7159 94.3196 64.2633 94.5582 63.9034C94.7969 63.5398 95.1132 63.2689 95.5071 63.0909C95.901 62.9091 96.3291 62.8182 96.7912 62.8182C97.1321 62.8182 97.4238 62.8466 97.6662 62.9034C97.9086 62.9564 98.0885 63.0057 98.206 63.0511L97.8082 64.4261C97.7287 64.4034 97.6264 64.3769 97.5014 64.3466C97.3764 64.3125 97.2249 64.2955 97.0469 64.2955C96.634 64.2955 96.3385 64.3977 96.1605 64.6023C95.9863 64.8068 95.8991 65.1023 95.8991 65.4886V75H94.2003ZM102.865 75.1761C102.047 75.1761 101.333 74.9886 100.723 74.6136C100.113 74.2386 99.6397 73.714 99.3026 73.0398C98.9654 72.3655 98.7969 71.5777 98.7969 70.6761C98.7969 69.7708 98.9654 68.9792 99.3026 68.3011C99.6397 67.6231 100.113 67.0966 100.723 66.7216C101.333 66.3466 102.047 66.1591 102.865 66.1591C103.683 66.1591 104.397 66.3466 105.007 66.7216C105.617 67.0966 106.09 67.6231 106.428 68.3011C106.765 68.9792 106.933 69.7708 106.933 70.6761C106.933 71.5777 106.765 72.3655 106.428 73.0398C106.09 73.714 105.617 74.2386 105.007 74.6136C104.397 74.9886 103.683 75.1761 102.865 75.1761ZM102.871 73.75C103.401 73.75 103.84 73.6098 104.189 73.3295C104.537 73.0492 104.795 72.6761 104.962 72.2102C105.132 71.7443 105.217 71.2311 105.217 70.6705C105.217 70.1136 105.132 69.6023 104.962 69.1364C104.795 68.6667 104.537 68.2898 104.189 68.0057C103.84 67.7216 103.401 67.5795 102.871 67.5795C102.337 67.5795 101.893 67.7216 101.541 68.0057C101.193 68.2898 100.933 68.6667 100.763 69.1364C100.596 69.6023 100.513 70.1136 100.513 70.6705C100.513 71.2311 100.596 71.7443 100.763 72.2102C100.933 72.6761 101.193 73.0492 101.541 73.3295C101.893 73.6098 102.337 73.75 102.871 73.75ZM108.83 75V66.2727H110.472V67.6591H110.562C110.722 67.1894 111.002 66.8201 111.403 66.5511C111.809 66.2784 112.267 66.142 112.778 66.142C112.884 66.142 113.009 66.1458 113.153 66.1534C113.301 66.161 113.417 66.1705 113.5 66.1818V67.8068C113.432 67.7879 113.311 67.767 113.136 67.7443C112.962 67.7178 112.788 67.7045 112.614 67.7045C112.212 67.7045 111.854 67.7898 111.54 67.9602C111.229 68.1269 110.983 68.3598 110.801 68.6591C110.619 68.9545 110.528 69.2917 110.528 69.6705V75H108.83ZM118.869 67V65.9091C118.869 65.5871 118.93 65.2481 119.051 64.892C119.172 64.536 119.341 64.1951 119.557 63.8693C119.773 63.5436 120.027 63.2652 120.318 63.0341L121.159 63.6364C120.928 63.9735 120.731 64.3258 120.568 64.6932C120.405 65.0606 120.324 65.4602 120.324 65.892V67H118.869ZM129.109 66.4205C129.049 65.8826 128.799 65.4659 128.359 65.1705C127.92 64.8712 127.367 64.7216 126.7 64.7216C126.223 64.7216 125.81 64.7973 125.462 64.9489C125.113 65.0966 124.842 65.3011 124.649 65.5625C124.46 65.8201 124.365 66.1136 124.365 66.4432C124.365 66.7197 124.429 66.9583 124.558 67.1591C124.691 67.3598 124.863 67.5284 125.075 67.6648C125.291 67.7973 125.522 67.9091 125.768 68C126.015 68.0871 126.251 68.1591 126.479 68.2159L127.615 68.5114C127.986 68.6023 128.367 68.7254 128.757 68.8807C129.147 69.036 129.509 69.2405 129.842 69.4943C130.176 69.7481 130.445 70.0625 130.649 70.4375C130.857 70.8125 130.962 71.2614 130.962 71.7841C130.962 72.4432 130.791 73.0284 130.45 73.5398C130.113 74.0511 129.623 74.4545 128.979 74.75C128.339 75.0455 127.564 75.1932 126.655 75.1932C125.784 75.1932 125.03 75.0549 124.393 74.7784C123.757 74.5019 123.259 74.1098 122.899 73.6023C122.539 73.0909 122.34 72.4848 122.303 71.7841H124.064C124.098 72.2045 124.234 72.5549 124.473 72.8352C124.715 73.1117 125.024 73.3182 125.399 73.4545C125.778 73.5871 126.193 73.6534 126.643 73.6534C127.14 73.6534 127.581 73.5758 127.967 73.4205C128.357 73.2614 128.664 73.0417 128.888 72.7614C129.111 72.4773 129.223 72.1458 129.223 71.767C129.223 71.4223 129.125 71.1402 128.928 70.9205C128.734 70.7008 128.471 70.5189 128.138 70.375C127.808 70.2311 127.435 70.1042 127.018 69.9943L125.643 69.6193C124.712 69.3655 123.973 68.9924 123.428 68.5C122.886 68.0076 122.615 67.3561 122.615 66.5455C122.615 65.875 122.797 65.2898 123.161 64.7898C123.524 64.2898 124.017 63.9015 124.638 63.625C125.259 63.3447 125.96 63.2045 126.74 63.2045C127.528 63.2045 128.223 63.3428 128.825 63.6193C129.431 63.8958 129.909 64.2765 130.257 64.7614C130.606 65.2424 130.787 65.7955 130.803 66.4205H129.109ZM134.622 69.8182V75H132.923V63.3636H134.599V67.6932H134.707C134.912 67.2235 135.224 66.8504 135.645 66.5739C136.065 66.2973 136.615 66.1591 137.293 66.1591C137.891 66.1591 138.414 66.2822 138.861 66.5284C139.312 66.7746 139.66 67.142 139.906 67.6307C140.156 68.1155 140.281 68.7216 140.281 69.4489V75H138.582V69.6534C138.582 69.0133 138.418 68.517 138.088 68.1648C137.759 67.8087 137.3 67.6307 136.713 67.6307C136.312 67.6307 135.952 67.7159 135.634 67.8864C135.319 68.0568 135.071 68.3068 134.889 68.6364C134.711 68.9621 134.622 69.3561 134.622 69.8182ZM146.31 75.1761C145.45 75.1761 144.709 74.9924 144.088 74.625C143.471 74.2538 142.993 73.733 142.656 73.0625C142.323 72.3883 142.156 71.5985 142.156 70.6932C142.156 69.7992 142.323 69.0114 142.656 68.3295C142.993 67.6477 143.463 67.1155 144.065 66.733C144.671 66.3504 145.38 66.1591 146.19 66.1591C146.683 66.1591 147.16 66.2405 147.622 66.4034C148.084 66.5663 148.499 66.822 148.866 67.1705C149.234 67.5189 149.524 67.9716 149.736 68.5284C149.948 69.0814 150.054 69.7538 150.054 70.5455V71.1477H143.116V69.875H148.389C148.389 69.428 148.298 69.0322 148.116 68.6875C147.935 68.339 147.679 68.0644 147.349 67.8636C147.024 67.6629 146.641 67.5625 146.202 67.5625C145.724 67.5625 145.308 67.6799 144.952 67.9148C144.599 68.1458 144.327 68.4489 144.134 68.8239C143.944 69.1951 143.849 69.5985 143.849 70.0341V71.0284C143.849 71.6117 143.952 72.108 144.156 72.517C144.365 72.9261 144.654 73.2386 145.026 73.4545C145.397 73.6667 145.83 73.7727 146.327 73.7727C146.649 73.7727 146.942 73.7273 147.207 73.6364C147.473 73.5417 147.702 73.4015 147.895 73.2159C148.088 73.0303 148.236 72.8011 148.338 72.5284L149.946 72.8182C149.817 73.2917 149.586 73.7064 149.253 74.0625C148.923 74.4148 148.509 74.6894 148.009 74.8864C147.512 75.0795 146.946 75.1761 146.31 75.1761ZM153.399 63.3636V64.4545C153.399 64.7765 153.339 65.1155 153.217 65.4716C153.1 65.8239 152.933 66.1629 152.717 66.4886C152.501 66.8144 152.248 67.0947 151.956 67.3295L151.115 66.7273C151.339 66.4015 151.532 66.0549 151.695 65.6875C151.861 65.3201 151.945 64.9148 151.945 64.4716V63.3636H153.399ZM161.253 75L158.685 66.2727H160.44L162.151 72.6818H162.236L163.952 66.2727H165.707L167.412 72.6534H167.497L169.196 66.2727H170.952L168.389 75H166.656L164.884 68.6989H164.753L162.98 75H161.253ZM174.263 69.8182V75H172.564V63.3636H174.24V67.6932H174.348C174.553 67.2235 174.865 66.8504 175.286 66.5739C175.706 66.2973 176.255 66.1591 176.933 66.1591C177.532 66.1591 178.054 66.2822 178.501 66.5284C178.952 66.7746 179.301 67.142 179.547 67.6307C179.797 68.1155 179.922 68.7216 179.922 69.4489V75H178.223V69.6534C178.223 69.0133 178.058 68.517 177.729 68.1648C177.399 67.8087 176.941 67.6307 176.354 67.6307C175.952 67.6307 175.592 67.7159 175.274 67.8864C174.96 68.0568 174.712 68.3068 174.53 68.6364C174.352 68.9621 174.263 69.3561 174.263 69.8182ZM185.865 75.1761C185.047 75.1761 184.333 74.9886 183.723 74.6136C183.113 74.2386 182.64 73.714 182.303 73.0398C181.965 72.3655 181.797 71.5777 181.797 70.6761C181.797 69.7708 181.965 68.9792 182.303 68.3011C182.64 67.6231 183.113 67.0966 183.723 66.7216C184.333 66.3466 185.047 66.1591 185.865 66.1591C186.683 66.1591 187.397 66.3466 188.007 66.7216C188.617 67.0966 189.09 67.6231 189.428 68.3011C189.765 68.9792 189.933 69.7708 189.933 70.6761C189.933 71.5777 189.765 72.3655 189.428 73.0398C189.09 73.714 188.617 74.2386 188.007 74.6136C187.397 74.9886 186.683 75.1761 185.865 75.1761ZM185.871 73.75C186.401 73.75 186.84 73.6098 187.189 73.3295C187.537 73.0492 187.795 72.6761 187.962 72.2102C188.132 71.7443 188.217 71.2311 188.217 70.6705C188.217 70.1136 188.132 69.6023 187.962 69.1364C187.795 68.6667 187.537 68.2898 187.189 68.0057C186.84 67.7216 186.401 67.5795 185.871 67.5795C185.337 67.5795 184.893 67.7216 184.541 68.0057C184.193 68.2898 183.933 68.6667 183.763 69.1364C183.596 69.6023 183.513 70.1136 183.513 70.6705C183.513 71.2311 183.596 71.7443 183.763 72.2102C183.933 72.6761 184.193 73.0492 184.541 73.3295C184.893 73.6098 185.337 73.75 185.871 73.75ZM196.064 75V66.2727H197.763V75H196.064ZM196.922 64.9261C196.626 64.9261 196.373 64.8277 196.161 64.6307C195.952 64.4299 195.848 64.1913 195.848 63.9148C195.848 63.6345 195.952 63.3958 196.161 63.1989C196.373 62.9981 196.626 62.8977 196.922 62.8977C197.217 62.8977 197.469 62.9981 197.678 63.1989C197.89 63.3958 197.996 63.6345 197.996 63.9148C197.996 64.1913 197.89 64.4299 197.678 64.6307C197.469 64.8277 197.217 64.9261 196.922 64.9261ZM206.588 68.4034L205.048 68.6761C204.984 68.4792 204.882 68.2917 204.741 68.1136C204.605 67.9356 204.42 67.7898 204.185 67.6761C203.95 67.5625 203.656 67.5057 203.304 67.5057C202.823 67.5057 202.421 67.6136 202.099 67.8295C201.777 68.0417 201.616 68.3163 201.616 68.6534C201.616 68.9451 201.724 69.1799 201.94 69.358C202.156 69.536 202.505 69.6818 202.986 69.7955L204.372 70.1136C205.175 70.2992 205.774 70.5852 206.168 70.9716C206.562 71.358 206.759 71.8598 206.759 72.4773C206.759 73 206.607 73.4659 206.304 73.875C206.005 74.2803 205.586 74.5985 205.048 74.8295C204.514 75.0606 203.895 75.1761 203.19 75.1761C202.213 75.1761 201.416 74.9678 200.798 74.5511C200.181 74.1307 199.802 73.5341 199.662 72.7614L201.304 72.5114C201.406 72.9394 201.616 73.2633 201.935 73.483C202.253 73.6989 202.668 73.8068 203.179 73.8068C203.736 73.8068 204.181 73.6913 204.514 73.4602C204.848 73.2254 205.014 72.9394 205.014 72.6023C205.014 72.3295 204.912 72.1004 204.707 71.9148C204.507 71.7292 204.198 71.589 203.781 71.4943L202.304 71.1705C201.49 70.9848 200.887 70.6894 200.497 70.2841C200.111 69.8788 199.918 69.3655 199.918 68.7443C199.918 68.2292 200.062 67.7784 200.349 67.392C200.637 67.0057 201.035 66.7045 201.543 66.4886C202.05 66.2689 202.632 66.1591 203.287 66.1591C204.23 66.1591 204.973 66.3636 205.514 66.7727C206.056 67.178 206.414 67.7216 206.588 68.4034Z" fill="white"/>
<path d="M59 129V82.4545H79.1818C82.7273 82.4545 85.7045 82.9318 88.1136 83.8864C90.5379 84.8409 92.3636 86.1894 93.5909 87.9318C94.8333 89.6742 95.4545 91.7273 95.4545 94.0909C95.4545 95.803 95.0758 97.3636 94.3182 98.7727C93.5758 100.182 92.5303 101.364 91.1818 102.318C89.8333 103.258 88.2576 103.909 86.4545 104.273V104.727C88.4545 104.803 90.2727 105.311 91.9091 106.25C93.5455 107.174 94.8485 108.455 95.8182 110.091C96.7879 111.712 97.2727 113.621 97.2727 115.818C97.2727 118.364 96.6061 120.629 95.2727 122.614C93.9545 124.598 92.0758 126.159 89.6364 127.295C87.197 128.432 84.2879 129 80.9091 129H59ZM71.6364 118.909H77.5455C79.6667 118.909 81.2576 118.515 82.3182 117.727C83.3788 116.924 83.9091 115.742 83.9091 114.182C83.9091 113.091 83.6591 112.167 83.1591 111.409C82.6591 110.652 81.947 110.076 81.0227 109.682C80.1136 109.288 79.0152 109.091 77.7273 109.091H71.6364V118.909ZM71.6364 101.273H76.8182C77.9242 101.273 78.9015 101.098 79.75 100.75C80.5985 100.402 81.2576 99.9015 81.7273 99.25C82.2121 98.5833 82.4545 97.7727 82.4545 96.8182C82.4545 95.3788 81.9394 94.2803 80.9091 93.5227C79.8788 92.75 78.5758 92.3636 77 92.3636H71.6364V101.273ZM146.841 105.727C146.841 110.909 145.833 115.28 143.818 118.841C141.803 122.386 139.083 125.076 135.659 126.909C132.235 128.727 128.417 129.636 124.205 129.636C119.962 129.636 116.129 128.72 112.705 126.886C109.295 125.038 106.583 122.341 104.568 118.795C102.568 115.235 101.568 110.879 101.568 105.727C101.568 100.545 102.568 96.1818 104.568 92.6364C106.583 89.0758 109.295 86.3864 112.705 84.5682C116.129 82.7348 119.962 81.8182 124.205 81.8182C128.417 81.8182 132.235 82.7348 135.659 84.5682C139.083 86.3864 141.803 89.0758 143.818 92.6364C145.833 96.1818 146.841 100.545 146.841 105.727ZM133.841 105.727C133.841 102.939 133.47 100.591 132.727 98.6818C132 96.7576 130.917 95.303 129.477 94.3182C128.053 93.3182 126.295 92.8182 124.205 92.8182C122.114 92.8182 120.348 93.3182 118.909 94.3182C117.485 95.303 116.402 96.7576 115.659 98.6818C114.932 100.591 114.568 102.939 114.568 105.727C114.568 108.515 114.932 110.871 115.659 112.795C116.402 114.705 117.485 116.159 118.909 117.159C120.348 118.144 122.114 118.636 124.205 118.636C126.295 118.636 128.053 118.144 129.477 117.159C130.917 116.159 132 114.705 132.727 112.795C133.47 110.871 133.841 108.515 133.841 105.727ZM152.688 129V82.4545H165.324V118.818H184.142V129H152.688ZM207.159 129H189.25V82.4545H206.977C211.765 82.4545 215.902 83.3864 219.386 85.25C222.886 87.0985 225.583 89.7651 227.477 93.25C229.386 96.7197 230.341 100.879 230.341 105.727C230.341 110.576 229.394 114.742 227.5 118.227C225.606 121.697 222.924 124.364 219.455 126.227C215.985 128.076 211.886 129 207.159 129ZM201.886 118.273H206.705C209.008 118.273 210.97 117.902 212.591 117.159C214.227 116.417 215.47 115.136 216.318 113.318C217.182 111.5 217.614 108.97 217.614 105.727C217.614 102.485 217.174 99.9545 216.295 98.1364C215.432 96.3182 214.159 95.0379 212.477 94.2955C210.811 93.553 208.765 93.1818 206.341 93.1818H201.886V118.273ZM57.6875 160V133.818H69.0398C71.0341 133.818 72.7088 134.087 74.0639 134.624C75.4276 135.161 76.4545 135.919 77.1449 136.899C77.8438 137.879 78.1932 139.034 78.1932 140.364C78.1932 141.327 77.9801 142.205 77.554 142.997C77.1364 143.79 76.5483 144.455 75.7898 144.991C75.0313 145.52 74.1449 145.886 73.1307 146.091V146.347C74.2557 146.389 75.2784 146.675 76.1989 147.203C77.1193 147.723 77.8523 148.443 78.3977 149.364C78.9432 150.276 79.2159 151.349 79.2159 152.585C79.2159 154.017 78.8409 155.291 78.0909 156.408C77.3494 157.524 76.2926 158.402 74.9205 159.041C73.5483 159.68 71.9119 160 70.0114 160H57.6875ZM64.7955 154.324H68.1193C69.3125 154.324 70.2074 154.102 70.804 153.659C71.4006 153.207 71.6989 152.543 71.6989 151.665C71.6989 151.051 71.5582 150.531 71.277 150.105C70.9957 149.679 70.5952 149.355 70.0753 149.134C69.5639 148.912 68.946 148.801 68.2216 148.801H64.7955V154.324ZM64.7955 144.403H67.7102C68.3324 144.403 68.8821 144.305 69.3594 144.109C69.8366 143.913 70.2074 143.632 70.4716 143.266C70.7443 142.891 70.8807 142.435 70.8807 141.898C70.8807 141.088 70.5909 140.47 70.0114 140.044C69.4318 139.609 68.6989 139.392 67.8125 139.392H64.7955V144.403ZM81.7344 160V133.818H93.0355C94.9787 133.818 96.679 134.172 98.1364 134.879C99.5938 135.587 100.727 136.605 101.537 137.935C102.347 139.264 102.751 140.858 102.751 142.716C102.751 144.591 102.334 146.172 101.499 147.459C100.672 148.746 99.5085 149.717 98.0085 150.374C96.517 151.03 94.7741 151.358 92.7798 151.358H86.0298V145.835H91.348C92.1832 145.835 92.8949 145.733 93.483 145.528C94.0795 145.315 94.5355 144.979 94.8509 144.518C95.1747 144.058 95.3366 143.457 95.3366 142.716C95.3366 141.966 95.1747 141.357 94.8509 140.888C94.5355 140.411 94.0795 140.061 93.483 139.839C92.8949 139.609 92.1832 139.494 91.348 139.494H88.8423V160H81.7344ZM97.0753 147.983L103.621 160H95.8991L89.5071 147.983H97.0753ZM112.582 160H104.912L113.554 133.818H123.27L131.912 160H124.241L118.514 141.028H118.31L112.582 160ZM111.151 149.67H125.571V154.989H111.151V149.67ZM141.542 133.818V160H134.434V133.818H141.542ZM167.564 133.818V160H161.632L152.172 146.244H152.018V160H144.91V133.818H150.944L160.251 147.523H160.456V133.818H167.564ZM169.852 133.818H177.778L182.892 144.455H183.096L188.21 133.818H196.136L186.522 151.767V160H179.466V151.767L169.852 133.818ZM57.6875 191V164.818H69.0398C71.0341 164.818 72.7088 165.087 74.0639 165.624C75.4276 166.161 76.4545 166.919 77.1449 167.899C77.8438 168.879 78.1932 170.034 78.1932 171.364C78.1932 172.327 77.9801 173.205 77.554 173.997C77.1364 174.79 76.5483 175.455 75.7898 175.991C75.0313 176.52 74.1449 176.886 73.1307 177.091V177.347C74.2557 177.389 75.2784 177.675 76.1989 178.203C77.1193 178.723 77.8523 179.443 78.3977 180.364C78.9432 181.276 79.2159 182.349 79.2159 183.585C79.2159 185.017 78.8409 186.291 78.0909 187.408C77.3494 188.524 76.2926 189.402 74.9205 190.041C73.5483 190.68 71.9119 191 70.0114 191H57.6875ZM64.7955 185.324H68.1193C69.3125 185.324 70.2074 185.102 70.804 184.659C71.4006 184.207 71.6989 183.543 71.6989 182.665C71.6989 182.051 71.5582 181.531 71.277 181.105C70.9957 180.679 70.5952 180.355 70.0753 180.134C69.5639 179.912 68.946 179.801 68.2216 179.801H64.7955V185.324ZM64.7955 175.403H67.7102C68.3324 175.403 68.8821 175.305 69.3594 175.109C69.8366 174.913 70.2074 174.632 70.4716 174.266C70.7443 173.891 70.8807 173.435 70.8807 172.898C70.8807 172.088 70.5909 171.47 70.0114 171.044C69.4318 170.609 68.6989 170.392 67.8125 170.392H64.7955V175.403ZM81.7344 191V164.818H93.0355C94.9787 164.818 96.679 165.172 98.1364 165.879C99.5938 166.587 100.727 167.605 101.537 168.935C102.347 170.264 102.751 171.858 102.751 173.716C102.751 175.591 102.334 177.172 101.499 178.459C100.672 179.746 99.5085 180.717 98.0085 181.374C96.517 182.03 94.7741 182.358 92.7798 182.358H86.0298V176.835H91.348C92.1832 176.835 92.8949 176.733 93.483 176.528C94.0795 176.315 94.5355 175.979 94.8509 175.518C95.1747 175.058 95.3366 174.457 95.3366 173.716C95.3366 172.966 95.1747 172.357 94.8509 171.888C94.5355 171.411 94.0795 171.061 93.483 170.839C92.8949 170.609 92.1832 170.494 91.348 170.494H88.8423V191H81.7344ZM97.0753 178.983L103.621 191H95.8991L89.5071 178.983H97.0753ZM112.582 191H104.912L113.554 164.818H123.27L131.912 191H124.241L118.514 172.028H118.31L112.582 191ZM111.151 180.67H125.571V185.989H111.151V180.67ZM137.796 164.818L143.165 183.278H143.37L148.739 164.818H156.767L148.125 191H138.409L129.767 164.818H137.796ZM159.289 191V164.818H178.158V170.545H166.397V175.045H177.187V180.773H166.397V185.273H178.107V191H159.289ZM57.9176 214V196.545H64.3097C65.5483 196.545 66.5739 196.75 67.3864 197.159C68.1989 197.562 68.8068 198.111 69.2102 198.804C69.6136 199.491 69.8153 200.267 69.8153 201.131C69.8153 201.858 69.6818 202.472 69.4148 202.972C69.1477 203.466 68.7898 203.864 68.3409 204.165C67.8977 204.46 67.4091 204.676 66.875 204.812V204.983C67.4545 205.011 68.0199 205.199 68.571 205.545C69.1278 205.886 69.5881 206.372 69.9517 207.003C70.3153 207.634 70.4972 208.401 70.4972 209.304C70.4972 210.196 70.2869 210.997 69.8665 211.707C69.4517 212.412 68.8097 212.972 67.9403 213.386C67.071 213.795 65.9602 214 64.608 214H57.9176ZM60.5511 211.741H64.3523C65.6136 211.741 66.517 211.497 67.0625 211.009C67.608 210.52 67.8807 209.909 67.8807 209.176C67.8807 208.625 67.7415 208.119 67.4631 207.659C67.1847 207.199 66.7869 206.832 66.2699 206.56C65.7585 206.287 65.1506 206.151 64.446 206.151H60.5511V211.741ZM60.5511 204.097H64.0795C64.6705 204.097 65.2017 203.983 65.6733 203.756C66.1506 203.528 66.5284 203.21 66.8068 202.801C67.0909 202.386 67.233 201.898 67.233 201.335C67.233 200.614 66.9801 200.009 66.4744 199.52C65.9688 199.031 65.1932 198.787 64.1477 198.787H60.5511V204.097ZM73.6207 214V196.545H84.5639V198.812H76.2543V204.131H83.9929V206.389H76.2543V211.733H84.6662V214H73.6207ZM89.5561 214H86.7607L93.0419 196.545H96.0845L102.366 214H99.5703L94.6357 199.716H94.4993L89.5561 214ZM90.0249 207.165H99.093V209.381H90.0249V207.165ZM116.111 196.545H118.753V208.026C118.753 209.247 118.466 210.33 117.892 211.273C117.318 212.21 116.511 212.949 115.472 213.489C114.432 214.023 113.213 214.29 111.815 214.29C110.423 214.29 109.207 214.023 108.168 213.489C107.128 212.949 106.321 212.21 105.747 211.273C105.173 210.33 104.886 209.247 104.886 208.026V196.545H107.52V207.812C107.52 208.602 107.693 209.304 108.04 209.918C108.392 210.531 108.889 211.014 109.531 211.366C110.173 211.713 110.935 211.886 111.815 211.886C112.702 211.886 113.466 211.713 114.108 211.366C114.756 211.014 115.25 210.531 115.591 209.918C115.938 209.304 116.111 208.602 116.111 207.812V196.545ZM121.721 198.812V196.545H135.229V198.812H129.783V214H127.158V198.812H121.721ZM140.848 196.545V214H138.214V196.545H140.848ZM144.683 214V196.545H155.507V198.812H147.317V204.131H154.732V206.389H147.317V214H144.683ZM169.97 196.545H172.612V208.026C172.612 209.247 172.325 210.33 171.751 211.273C171.178 212.21 170.371 212.949 169.331 213.489C168.291 214.023 167.072 214.29 165.675 214.29C164.283 214.29 163.067 214.023 162.027 213.489C160.987 212.949 160.18 212.21 159.607 211.273C159.033 210.33 158.746 209.247 158.746 208.026V196.545H161.379V207.812C161.379 208.602 161.553 209.304 161.899 209.918C162.251 210.531 162.749 211.014 163.391 211.366C164.033 211.713 164.794 211.886 165.675 211.886C166.561 211.886 167.325 211.713 167.967 211.366C168.615 211.014 169.109 210.531 169.45 209.918C169.797 209.304 169.97 208.602 169.97 207.812V196.545ZM176.441 214V196.545H179.075V211.733H186.984V214H176.441Z" fill="url(#paint1_linear_149_15)"/>
<path d="M192.71 185.128C190.957 184.328 189.589 183.328 188.606 182.128C187.623 180.928 187.031 179.651 186.83 178.298C186.63 176.945 186.817 175.639 187.392 174.38C187.81 173.464 188.355 172.735 189.025 172.194C189.7 171.645 190.486 171.219 191.385 170.917C192.284 170.615 193.286 170.37 194.393 170.182L201.511 169.272C202.229 169.176 202.773 168.986 203.143 168.703C203.517 168.411 203.771 168.118 203.905 167.823C204.084 167.433 204.099 167.021 203.95 166.587C203.801 166.153 203.423 165.802 202.813 165.533C202.439 165.362 202.083 165.287 201.747 165.306C201.414 165.318 201.116 165.413 200.852 165.591C200.595 165.772 200.389 166.035 200.233 166.377C200.018 166.847 199.933 167.391 199.979 168.009C200.027 168.619 200.158 169.314 200.37 170.094C200.581 170.875 200.822 171.75 201.091 172.72L206.988 191.186L200.391 188.173L195.249 173.115C195 172.375 194.751 171.496 194.503 170.478C194.259 169.451 194.139 168.366 194.142 167.221C194.152 166.08 194.412 164.952 194.922 163.836C195.489 162.593 196.307 161.594 197.373 160.839C198.44 160.084 199.652 159.646 201.008 159.523C202.364 159.401 203.759 159.667 205.193 160.322C206.563 160.948 207.613 161.769 208.343 162.786C209.081 163.807 209.502 164.909 209.606 166.093C209.719 167.281 209.517 168.44 209 169.572C208.48 170.711 207.711 171.646 206.694 172.376C205.685 173.109 204.49 173.608 203.108 173.872L196.403 175.144C195.889 175.236 195.408 175.392 194.961 175.612C194.522 175.835 194.175 176.226 193.921 176.784C193.71 177.246 193.637 177.689 193.703 178.114C193.769 178.539 193.957 178.928 194.268 179.282C194.586 179.639 195.012 179.94 195.546 180.183C196.359 180.555 197.26 180.731 198.251 180.711C199.254 180.688 200.256 180.476 201.257 180.076C202.262 179.668 203.189 179.071 204.04 178.284C204.901 177.493 205.596 176.52 206.124 175.365L211.335 177.745C210.687 179.163 209.916 180.462 209.021 181.642C208.126 182.822 207.102 183.809 205.95 184.602C204.798 185.395 203.518 185.923 202.108 186.184C201.697 186.199 201.297 186.209 200.909 186.215C200.522 186.221 200.122 186.231 199.711 186.245C198.444 186.427 197.216 186.406 196.028 186.181C194.844 185.949 193.738 185.598 192.71 185.128Z" fill="white"/>
<defs>
<linearGradient id="paint0_linear_149_15" x1="277.232" y1="20" x2="21.8018" y2="232.834" gradientUnits="userSpaceOnUse">
<stop stop-color="#290604"/>
<stop offset="1" stop-color="#821108"/>
</linearGradient>
<linearGradient id="paint1_linear_149_15" x1="292.463" y1="80" x2="51.724" y2="260.826" gradientUnits="userSpaceOnUse">
<stop stop-color="#CC3300"/>
<stop offset="1" stop-color="#F2A400"/>
</linearGradient>
</defs>
</svg>
