<svg width="132" height="132" viewBox="0 0 132 132" fill="none" xmlns="http://www.w3.org/2000/svg">
<circle cx="66" cy="66" r="60.5" stroke="#BD1669" stroke-width="11"/>
<circle cx="66" cy="66" r="50.5" stroke="white" stroke-width="7"/>
<path d="M48.6912 50.5455C48.6912 51.7102 48.4782 52.7116 48.052 53.5497C47.6259 54.3842 47.0417 55.027 46.2995 55.478C45.5609 55.9254 44.7211 56.1491 43.78 56.1491C42.8354 56.1491 41.992 55.9254 41.2498 55.478C40.5112 55.027 39.9288 54.3825 39.5027 53.5444C39.0765 52.7063 38.8635 51.7067 38.8635 50.5455C38.8635 49.3807 39.0765 48.381 39.5027 47.5465C39.9288 46.7085 40.5112 46.0657 41.2498 45.6183C41.992 45.1673 42.8354 44.9418 43.78 44.9418C44.7211 44.9418 45.5609 45.1673 46.2995 45.6183C47.0417 46.0657 47.6259 46.7085 48.052 47.5465C48.4782 48.381 48.6912 49.3807 48.6912 50.5455ZM47.0612 50.5455C47.0612 49.6577 46.9174 48.9102 46.6298 48.3029C46.3457 47.6921 45.9551 47.2305 45.4579 46.918C44.9643 46.6019 44.405 46.4439 43.78 46.4439C43.1514 46.4439 42.5904 46.6019 42.0968 46.918C41.6032 47.2305 41.2125 47.6921 40.9249 48.3029C40.6408 48.9102 40.4987 49.6577 40.4987 50.5455C40.4987 51.4332 40.6408 52.1825 40.9249 52.7933C41.2125 53.4006 41.6032 53.8622 42.0968 54.1783C42.5904 54.4908 43.1514 54.647 43.78 54.647C44.405 54.647 44.9643 54.4908 45.4579 54.1783C45.9551 53.8622 46.3457 53.4006 46.6298 52.7933C46.9174 52.1825 47.0612 51.4332 47.0612 50.5455ZM49.5433 56V45.0909H53.4318C54.2806 45.0909 54.9837 45.2454 55.5412 45.5543C56.0987 45.8633 56.516 46.2859 56.793 46.8221C57.07 47.3548 57.2085 47.9549 57.2085 48.6225C57.2085 49.2937 57.0682 49.8974 56.7877 50.4336C56.5107 50.9663 56.0916 51.3888 55.5306 51.7013C54.973 52.0103 54.2717 52.1648 53.4265 52.1648H50.7525V50.7692H53.2774C53.8136 50.7692 54.2486 50.6768 54.5824 50.4922C54.9162 50.304 55.1612 50.0483 55.3175 49.7251C55.4737 49.402 55.5519 49.0344 55.5519 48.6225C55.5519 48.2106 55.4737 47.8448 55.3175 47.5252C55.1612 47.2056 54.9144 46.9553 54.5771 46.7741C54.2433 46.593 53.8029 46.5025 53.256 46.5025H51.1893V56H49.5433ZM57.9381 56V45.0909H64.7775V46.5078H59.584V49.8317H64.4207V51.2433H59.584V54.5831H64.8415V56H57.9381ZM74.5812 45.0909V56H73.0684L67.5233 47.9993H67.4221V56H65.7761V45.0909H67.2996L72.85 53.1023H72.9512V45.0909H74.5812ZM78.0139 46.5078V45.0909H86.4568V46.5078H83.053V56H81.4124V46.5078H78.0139ZM96.1299 50.5455C96.1299 51.7102 95.9168 52.7116 95.4907 53.5497C95.0646 54.3842 94.4804 55.027 93.7382 55.478C92.9996 55.9254 92.1597 56.1491 91.2187 56.1491C90.2741 56.1491 89.4307 55.9254 88.6885 55.478C87.9499 55.027 87.3675 54.3825 86.9413 53.5444C86.5152 52.7063 86.3021 51.7067 86.3021 50.5455C86.3021 49.3807 86.5152 48.381 86.9413 47.5465C87.3675 46.7085 87.9499 46.0657 88.6885 45.6183C89.4307 45.1673 90.2741 44.9418 91.2187 44.9418C92.1597 44.9418 92.9996 45.1673 93.7382 45.6183C94.4804 46.0657 95.0646 46.7085 95.4907 47.5465C95.9168 48.381 96.1299 49.3807 96.1299 50.5455ZM94.4999 50.5455C94.4999 49.6577 94.3561 48.9102 94.0685 48.3029C93.7844 47.6921 93.3937 47.2305 92.8966 46.918C92.403 46.6019 91.8437 46.4439 91.2187 46.4439C90.5901 46.4439 90.029 46.6019 89.5354 46.918C89.0418 47.2305 88.6512 47.6921 88.3636 48.3029C88.0795 48.9102 87.9374 49.6577 87.9374 50.5455C87.9374 51.4332 88.0795 52.1825 88.3636 52.7933C88.6512 53.4006 89.0418 53.8622 89.5354 54.1783C90.029 54.4908 90.5901 54.647 91.2187 54.647C91.8437 54.647 92.403 54.4908 92.8966 54.1783C93.3937 53.8622 93.7844 53.4006 94.0685 52.7933C94.3561 52.1825 94.4999 51.4332 94.4999 50.5455ZM36.8656 59.1818V73H33.1142V62.6364H33.0332L30.0105 64.4446V61.2599L33.411 59.1818H36.8656ZM45.3434 73.1889C44.2279 73.1889 43.2315 73.0157 42.3544 72.6694C41.4818 72.323 40.7936 71.853 40.2898 71.2592C39.7905 70.6655 39.5408 69.9953 39.5408 69.2486C39.5408 68.6773 39.6825 68.1555 39.9659 67.6832C40.2538 67.2109 40.6406 66.8196 41.1264 66.5092C41.6122 66.1944 42.1542 65.992 42.7525 65.902V65.794C41.9653 65.6591 41.3176 65.3105 40.8093 64.7482C40.3055 64.1815 40.0536 63.5135 40.0536 62.7443C40.0536 62.0201 40.283 61.3769 40.7418 60.8146C41.2006 60.2479 41.8281 59.8026 42.6243 59.4787C43.4205 59.1548 44.3268 58.9929 45.3434 58.9929C46.36 58.9929 47.2663 59.1571 48.0625 59.4854C48.8587 59.8093 49.4862 60.2546 49.945 60.8214C50.4038 61.3836 50.6332 62.0246 50.6332 62.7443C50.6332 63.518 50.3768 64.186 49.864 64.7482C49.3512 65.3105 48.708 65.6591 47.9343 65.794V65.902C48.5281 65.992 49.0678 66.1944 49.5536 66.5092C50.0394 66.8196 50.4263 67.2109 50.7141 67.6832C51.002 68.1555 51.146 68.6773 51.146 69.2486C51.146 69.9953 50.8941 70.6655 50.3903 71.2592C49.891 71.853 49.2028 72.323 48.3256 72.6694C47.453 73.0157 46.4589 73.1889 45.3434 73.1889ZM45.3434 70.598C45.6987 70.598 46.0136 70.526 46.288 70.3821C46.5624 70.2382 46.7783 70.0402 46.9357 69.7884C47.0977 69.532 47.1786 69.2441 47.1786 68.9247C47.1786 68.6054 47.0977 68.322 46.9357 68.0746C46.7783 67.8272 46.5624 67.6338 46.288 67.4943C46.0136 67.3504 45.6987 67.2784 45.3434 67.2784C44.9925 67.2784 44.6777 67.3504 44.3988 67.4943C44.1244 67.6338 43.9063 67.8272 43.7443 68.0746C43.5869 68.322 43.5082 68.6054 43.5082 68.9247C43.5082 69.2441 43.5869 69.5297 43.7443 69.7816C43.9063 70.0335 44.1244 70.2337 44.3988 70.3821C44.6777 70.526 44.9925 70.598 45.3434 70.598ZM45.3434 64.6875C45.6583 64.6875 45.9371 64.6223 46.18 64.4918C46.4229 64.3614 46.6141 64.1815 46.7536 63.9521C46.893 63.7227 46.9627 63.464 46.9627 63.1761C46.9627 62.8883 46.893 62.6341 46.7536 62.4137C46.6141 62.1888 46.4229 62.0134 46.18 61.8874C45.9371 61.757 45.6583 61.6918 45.3434 61.6918C45.033 61.6918 44.7541 61.757 44.5067 61.8874C44.2638 62.0134 44.0727 62.1888 43.9332 62.4137C43.7938 62.6341 43.7241 62.8883 43.7241 63.1761C43.7241 63.464 43.7938 63.7227 43.9332 63.9521C44.0727 64.177 44.2638 64.3569 44.5067 64.4918C44.7541 64.6223 45.033 64.6875 45.3434 64.6875ZM59.6491 64.6875V67.4943H53.1718V64.6875H59.6491ZM61.6159 73V70.3011L66.7707 66.0369C67.1125 65.7536 67.4049 65.4882 67.6478 65.2408C67.8952 64.9889 68.0841 64.7302 68.2146 64.4648C68.3495 64.1995 68.417 63.9048 68.417 63.581C68.417 63.2256 68.3405 62.922 68.1876 62.6701C68.0392 62.4182 67.8322 62.2248 67.5669 62.0898C67.3015 61.9504 66.9956 61.8807 66.6492 61.8807C66.3029 61.8807 65.997 61.9504 65.7316 62.0898C65.4707 62.2293 65.2683 62.4339 65.1244 62.7038C64.9804 62.9737 64.9085 63.3021 64.9085 63.6889H61.346C61.346 62.7173 61.5641 61.8807 62.0004 61.179C62.4368 60.4773 63.053 59.9375 63.8492 59.5597C64.6453 59.1818 65.5787 58.9929 66.6492 58.9929C67.7558 58.9929 68.7139 59.1706 69.5235 59.5259C70.3377 59.8768 70.9652 60.3716 71.406 61.0103C71.8513 61.649 72.074 62.398 72.074 63.2571C72.074 63.7879 71.9637 64.3164 71.7433 64.8427C71.5229 65.3645 71.1271 65.9425 70.5558 66.5767C69.9846 67.2109 69.1727 67.9666 68.1201 68.8438L66.8247 69.9233V70.0043H72.2224V73H61.6159ZM79.5397 73.1889C78.4242 73.1889 77.4278 73.0157 76.5507 72.6694C75.6781 72.323 74.9898 71.853 74.4861 71.2592C73.9868 70.6655 73.7371 69.9953 73.7371 69.2486C73.7371 68.6773 73.8788 68.1555 74.1622 67.6832C74.4501 67.2109 74.8369 66.8196 75.3227 66.5092C75.8085 66.1944 76.3505 65.992 76.9488 65.902V65.794C76.1616 65.6591 75.5139 65.3105 75.0056 64.7482C74.5018 64.1815 74.2499 63.5135 74.2499 62.7443C74.2499 62.0201 74.4793 61.3769 74.9381 60.8146C75.3969 60.2479 76.0244 59.8026 76.8206 59.4787C77.6167 59.1548 78.5231 58.9929 79.5397 58.9929C80.5563 58.9929 81.4626 59.1571 82.2588 59.4854C83.055 59.8093 83.6824 60.2546 84.1412 60.8214C84.6001 61.3836 84.8295 62.0246 84.8295 62.7443C84.8295 63.518 84.5731 64.186 84.0603 64.7482C83.5475 65.3105 82.9043 65.6591 82.1306 65.794V65.902C82.7243 65.992 83.2641 66.1944 83.7499 66.5092C84.2357 66.8196 84.6225 67.2109 84.9104 67.6832C85.1983 68.1555 85.3422 68.6773 85.3422 69.2486C85.3422 69.9953 85.0903 70.6655 84.5866 71.2592C84.0873 71.853 83.3991 72.323 82.5219 72.6694C81.6493 73.0157 80.6552 73.1889 79.5397 73.1889ZM79.5397 70.598C79.895 70.598 80.2099 70.526 80.4843 70.3821C80.7587 70.2382 80.9746 70.0402 81.132 69.7884C81.2939 69.532 81.3749 69.2441 81.3749 68.9247C81.3749 68.6054 81.2939 68.322 81.132 68.0746C80.9746 67.8272 80.7587 67.6338 80.4843 67.4943C80.2099 67.3504 79.895 67.2784 79.5397 67.2784C79.1888 67.2784 78.874 67.3504 78.5951 67.4943C78.3207 67.6338 78.1025 67.8272 77.9406 68.0746C77.7832 68.322 77.7045 68.6054 77.7045 68.9247C77.7045 69.2441 77.7832 69.5297 77.9406 69.7816C78.1025 70.0335 78.3207 70.2337 78.5951 70.3821C78.874 70.526 79.1888 70.598 79.5397 70.598ZM79.5397 64.6875C79.8546 64.6875 80.1334 64.6223 80.3763 64.4918C80.6192 64.3614 80.8104 64.1815 80.9498 63.9521C81.0893 63.7227 81.159 63.464 81.159 63.1761C81.159 62.8883 81.0893 62.6341 80.9498 62.4137C80.8104 62.1888 80.6192 62.0134 80.3763 61.8874C80.1334 61.757 79.8546 61.6918 79.5397 61.6918C79.2293 61.6918 78.9504 61.757 78.703 61.8874C78.4601 62.0134 78.269 62.1888 78.1295 62.4137C77.9901 62.6341 77.9204 62.8883 77.9204 63.1761C77.9204 63.464 77.9901 63.7227 78.1295 63.9521C78.269 64.177 78.4601 64.3569 78.703 64.4918C78.9504 64.6223 79.2293 64.6875 79.5397 64.6875ZM86.3375 65.7273H87.584L89.4838 69.0334H89.562L91.4618 65.7273H92.7083L90.0698 70.1449V73H88.976V70.1449L86.3375 65.7273ZM93.7443 73V65.7273H96.3366C96.9001 65.7273 97.3677 65.8243 97.7393 66.0185C98.1134 66.2126 98.3928 66.4813 98.5774 66.8246C98.7621 67.1655 98.8544 67.5597 98.8544 68.0071C98.8544 68.4522 98.7609 68.844 98.5739 69.1825C98.3892 69.5187 98.1098 69.7803 97.7358 69.9673C97.3641 70.1544 96.8965 70.2479 96.3331 70.2479H94.3693V69.3033H96.2337C96.5888 69.3033 96.8776 69.2524 97.1001 69.1506C97.325 69.0488 97.4896 68.9008 97.5938 68.7067C97.6979 68.5125 97.75 68.2794 97.75 68.0071C97.75 67.7325 97.6967 67.4946 97.5902 67.2933C97.486 67.0921 97.3215 66.9382 97.0966 66.8317C96.8741 66.7228 96.5817 66.6683 96.2195 66.6683H94.8416V73H93.7443ZM97.3345 69.7188L99.1314 73H97.8814L96.12 69.7188H97.3345ZM104.156 67.6378C104.118 67.3016 103.962 67.0412 103.688 66.8565C103.413 66.6695 103.067 66.576 102.651 66.576C102.352 66.576 102.094 66.6233 101.876 66.718C101.659 66.8104 101.489 66.9382 101.369 67.1016C101.25 67.2625 101.191 67.446 101.191 67.652C101.191 67.8248 101.231 67.974 101.312 68.0994C101.395 68.2249 101.502 68.3303 101.635 68.4155C101.77 68.4983 101.914 68.5682 102.068 68.625C102.222 68.6795 102.37 68.7244 102.512 68.7599L103.222 68.9446C103.454 69.0014 103.692 69.0784 103.936 69.1754C104.18 69.2725 104.406 69.4003 104.614 69.5589C104.823 69.7176 104.991 69.9141 105.119 70.1484C105.249 70.3828 105.314 70.6634 105.314 70.9901C105.314 71.402 105.207 71.7678 104.994 72.0874C104.784 72.407 104.477 72.6591 104.075 72.8438C103.674 73.0284 103.19 73.1207 102.622 73.1207C102.078 73.1207 101.607 73.0343 101.209 72.8615C100.811 72.6887 100.5 72.4437 100.275 72.1264C100.05 71.8068 99.9257 71.428 99.902 70.9901H101.003C101.024 71.2528 101.109 71.4718 101.259 71.647C101.41 71.8198 101.603 71.9489 101.837 72.0341C102.074 72.117 102.333 72.1584 102.615 72.1584C102.925 72.1584 103.201 72.1098 103.442 72.0128C103.686 71.9134 103.878 71.776 104.018 71.6009C104.157 71.4233 104.227 71.2161 104.227 70.9794C104.227 70.764 104.166 70.5876 104.043 70.4503C103.922 70.313 103.757 70.1993 103.549 70.1094C103.343 70.0194 103.11 69.9401 102.849 69.8714L101.99 69.6371C101.408 69.4785 100.946 69.2453 100.605 68.9375C100.267 68.6297 100.097 68.2225 100.097 67.7159C100.097 67.2969 100.211 66.9311 100.438 66.6186C100.665 66.3061 100.973 66.0634 101.362 65.8906C101.75 65.7154 102.188 65.6278 102.675 65.6278C103.168 65.6278 103.602 65.7143 103.979 65.8871C104.357 66.0599 104.656 66.2978 104.874 66.6009C105.091 66.9015 105.205 67.2472 105.214 67.6378H104.156ZM27.8961 74.7273H29.2278L31.5431 80.3807H31.6283L33.9437 74.7273H35.2753V82H34.2313V76.7372H34.1638L32.0189 81.9893H31.1525L29.0076 76.7337H28.9401V82H27.8961V74.7273ZM36.935 82H35.7703L38.3874 74.7273H39.6552L42.2724 82H41.1076L39.0515 76.0483H38.9947L36.935 82ZM37.1303 79.152H40.9088V80.0753H37.1303V79.152ZM43.8699 74.7273V82H42.7726V74.7273H43.8699ZM47.2724 82H44.9179V74.7273H47.3469C48.0595 74.7273 48.6715 74.8729 49.1829 75.1641C49.6942 75.4529 50.086 75.8684 50.3583 76.4105C50.6329 76.9503 50.7702 77.5978 50.7702 78.353C50.7702 79.1106 50.6317 79.7616 50.3547 80.3061C50.0801 80.8506 49.6824 81.2696 49.1616 81.5632C48.6407 81.8544 48.011 82 47.2724 82ZM46.0153 81.0412H47.212C47.766 81.0412 48.2264 80.937 48.5934 80.7287C48.9603 80.518 49.2349 80.2138 49.4172 79.8161C49.5995 79.416 49.6907 78.9283 49.6907 78.353C49.6907 77.7824 49.5995 77.2983 49.4172 76.9006C49.2373 76.5028 48.9686 76.201 48.6111 75.995C48.2537 75.7891 47.8098 75.6861 47.2795 75.6861H46.0153V81.0412ZM51.5847 82V74.7273H56.1444V75.6719H52.682V77.8878H55.9065V78.8288H52.682V81.0554H56.187V82H51.5847ZM62.9302 74.7273V82H61.9216L58.2249 76.6662H58.1574V82H57.0601V74.7273H58.0758L61.776 80.0682H61.8435V74.7273H62.9302ZM66.0773 82V74.7273H68.6697C69.2331 74.7273 69.7007 74.8243 70.0724 75.0185C70.4464 75.2126 70.7258 75.4813 70.9104 75.8246C71.0951 76.1655 71.1874 76.5597 71.1874 77.0071C71.1874 77.4522 71.0939 77.844 70.9069 78.1825C70.7222 78.5187 70.4429 78.7803 70.0688 78.9673C69.6971 79.1544 69.2296 79.2479 68.6661 79.2479H66.7023V78.3033H68.5667C68.9218 78.3033 69.2106 78.2524 69.4331 78.1506C69.6581 78.0488 69.8226 77.9008 69.9268 77.7067C70.0309 77.5125 70.083 77.2794 70.083 77.0071C70.083 76.7325 70.0297 76.4946 69.9232 76.2933C69.819 76.0921 69.6545 75.9382 69.4296 75.8317C69.2071 75.7228 68.9147 75.6683 68.5525 75.6683H67.1746V82H66.0773ZM69.6675 78.7188L71.4644 82H70.2144L68.453 78.7188H69.6675ZM71.9726 82V74.7273H76.5323V75.6719H73.0699V77.8878H76.2944V78.8288H73.0699V81.0554H76.5749V82H71.9726ZM81.4146 76.6378C81.3768 76.3016 81.2205 76.0412 80.9459 75.8565C80.6713 75.6695 80.3256 75.576 79.909 75.576C79.6107 75.576 79.3526 75.6233 79.1348 75.718C78.917 75.8104 78.7477 75.9382 78.627 76.1016C78.5086 76.2625 78.4494 76.446 78.4494 76.652C78.4494 76.8248 78.4897 76.974 78.5702 77.0994C78.653 77.2249 78.7608 77.3303 78.8933 77.4155C79.0283 77.4983 79.1727 77.5682 79.3266 77.625C79.4805 77.6795 79.6284 77.7244 79.7705 77.7599L80.4807 77.9446C80.7127 78.0014 80.9506 78.0784 81.1945 78.1754C81.4383 78.2725 81.6644 78.4003 81.8727 78.5589C82.0811 78.7176 82.2492 78.9141 82.377 79.1484C82.5072 79.3828 82.5723 79.6634 82.5723 79.9901C82.5723 80.402 82.4658 80.7678 82.2527 81.0874C82.042 81.407 81.7354 81.6591 81.333 81.8438C80.9329 82.0284 80.4487 82.1207 79.8806 82.1207C79.336 82.1207 78.8649 82.0343 78.4672 81.8615C78.0695 81.6887 77.7582 81.4437 77.5333 81.1264C77.3083 80.8068 77.1841 80.428 77.1604 79.9901H78.2612C78.2825 80.2528 78.3678 80.4718 78.5169 80.647C78.6684 80.8198 78.8614 80.9489 79.0958 81.0341C79.3325 81.117 79.5917 81.1584 79.8735 81.1584C80.1836 81.1584 80.4594 81.1098 80.7009 81.0128C80.9447 80.9134 81.1365 80.776 81.2762 80.6009C81.4158 80.4233 81.4857 80.2161 81.4857 79.9794C81.4857 79.764 81.4241 79.5876 81.301 79.4503C81.1803 79.313 81.0157 79.1993 80.8074 79.1094C80.6014 79.0194 80.3682 78.9401 80.1078 78.8714L79.2485 78.6371C78.6661 78.4785 78.2044 78.2453 77.8635 77.9375C77.525 77.6297 77.3557 77.2225 77.3557 76.7159C77.3557 76.2969 77.4693 75.9311 77.6966 75.6186C77.9239 75.3061 78.2316 75.0634 78.6199 74.8906C79.0082 74.7154 79.4461 74.6278 79.9338 74.6278C80.4262 74.6278 80.8607 74.7143 81.2371 74.8871C81.6159 75.0599 81.9142 75.2978 82.132 75.6009C82.3498 75.9015 82.4634 76.2472 82.4729 76.6378H81.4146ZM84.4309 74.7273V82H83.3336V74.7273H84.4309ZM87.8333 82H85.4789V74.7273H87.9079C88.6205 74.7273 89.2324 74.8729 89.7438 75.1641C90.2552 75.4529 90.647 75.8684 90.9192 76.4105C91.1939 76.9503 91.3312 77.5978 91.3312 78.353C91.3312 79.1106 91.1927 79.7616 90.9157 80.3061C90.6411 80.8506 90.2433 81.2696 89.7225 81.5632C89.2017 81.8544 88.5719 82 87.8333 82ZM86.5762 81.0412H87.7729C88.3269 81.0412 88.7874 80.937 89.1543 80.7287C89.5213 80.518 89.7959 80.2138 89.9782 79.8161C90.1605 79.416 90.2516 78.9283 90.2516 78.353C90.2516 77.7824 90.1605 77.2983 89.9782 76.9006C89.7983 76.5028 89.5296 76.201 89.1721 75.995C88.8146 75.7891 88.3707 75.6861 87.8404 75.6861H86.5762V81.0412ZM93.243 74.7273V82H92.1457V74.7273H93.243ZM100.161 74.7273V82H99.1525L95.4558 76.6662H95.3883V82H94.291V74.7273H95.3066L99.0069 80.0682H99.0744V74.7273H100.161ZM106.134 77.0249C106.065 76.8094 105.973 76.6165 105.857 76.446C105.743 76.2732 105.607 76.1264 105.448 76.0057C105.29 75.8826 105.108 75.7891 104.905 75.7251C104.704 75.6612 104.482 75.6293 104.241 75.6293C103.831 75.6293 103.462 75.7346 103.133 75.9453C102.804 76.156 102.543 76.465 102.352 76.8722C102.162 77.277 102.068 77.773 102.068 78.3601C102.068 78.9496 102.163 79.4479 102.355 79.8551C102.547 80.2623 102.81 80.5713 103.144 80.782C103.477 80.9927 103.857 81.098 104.283 81.098C104.679 81.098 105.023 81.0175 105.317 80.8565C105.613 80.6955 105.841 80.4683 106.002 80.1747C106.166 79.8788 106.247 79.5308 106.247 79.1307L106.531 79.1839H104.45V78.2784H107.309V79.1058C107.309 79.7166 107.179 80.2469 106.918 80.6967C106.66 81.1442 106.303 81.4898 105.846 81.7337C105.391 81.9775 104.871 82.0994 104.283 82.0994C103.625 82.0994 103.048 81.9479 102.55 81.6449C102.056 81.3419 101.67 80.9122 101.393 80.3558C101.116 79.7971 100.977 79.1342 100.977 78.3672C100.977 77.7872 101.058 77.2663 101.219 76.8047C101.38 76.343 101.606 75.9512 101.897 75.6293C102.191 75.3049 102.535 75.0575 102.93 74.8871C103.328 74.7143 103.763 74.6278 104.234 74.6278C104.627 74.6278 104.992 74.6858 105.331 74.8018C105.672 74.9179 105.975 75.0824 106.24 75.2955C106.508 75.5085 106.729 75.7618 106.904 76.0554C107.079 76.3466 107.198 76.6697 107.259 77.0249H106.134ZM43.1164 83.7273V91H42.0191V83.7273H43.1164ZM50.0345 83.7273V91H49.0259L45.3292 85.6662H45.2617V91H44.1644V83.7273H45.1801L48.8803 89.0682H48.9478V83.7273H50.0345ZM53.1816 91V83.7273H55.845C56.3611 83.7273 56.7884 83.8125 57.1269 83.983C57.4655 84.151 57.7188 84.3795 57.8869 84.6683C58.055 84.9548 58.139 85.2779 58.139 85.6378C58.139 85.9408 58.0834 86.1965 57.9721 86.4048C57.8608 86.6108 57.7117 86.7765 57.5247 86.902C57.34 87.0251 57.1364 87.1151 56.9139 87.1719V87.2429C57.1553 87.2547 57.3909 87.3329 57.6205 87.4773C57.8526 87.6193 58.0443 87.8217 58.1958 88.0845C58.3473 88.3473 58.4231 88.6669 58.4231 89.0433C58.4231 89.415 58.3355 89.7488 58.1603 90.0447C57.9875 90.3383 57.72 90.5715 57.3578 90.7443C56.9955 90.9148 56.5327 91 55.9693 91H53.1816ZM54.2789 90.0589H55.8627C56.3883 90.0589 56.7647 89.9571 56.992 89.7536C57.2193 89.55 57.3329 89.2955 57.3329 88.9901C57.3329 88.7604 57.2749 88.5497 57.1589 88.358C57.0429 88.1662 56.8772 88.0135 56.6617 87.8999C56.4487 87.7862 56.1954 87.7294 55.9018 87.7294H54.2789V90.0589ZM54.2789 86.8736H55.7491C55.9953 86.8736 56.2167 86.8262 56.4132 86.7315C56.612 86.6368 56.7695 86.5043 56.8855 86.3338C57.0038 86.161 57.063 85.9574 57.063 85.723C57.063 85.4223 56.9577 85.1702 56.747 84.9666C56.5363 84.763 56.2131 84.6612 55.7775 84.6612H54.2789V86.8736ZM59.7889 91H58.6242L61.2414 83.7273H62.5091L65.1263 91H63.9615L61.9054 85.0483H61.8486L59.7889 91ZM59.9843 88.152H63.7627V89.0753H59.9843V88.152ZM64.3233 83.7273H65.5697L67.4696 87.0334H67.5477L69.4476 83.7273H70.694L68.0555 88.1449V91H66.9618V88.1449L64.3233 83.7273ZM71.1801 91V83.7273H75.7397V84.6719H72.2774V86.8878H75.5018V87.8288H72.2774V90.0554H75.7823V91H71.1801ZM76.6555 91V83.7273H77.7528V90.0554H81.0482V91H76.6555ZM85.7166 85.6378C85.6787 85.3016 85.5225 85.0412 85.2478 84.8565C84.9732 84.6695 84.6276 84.576 84.2109 84.576C83.9126 84.576 83.6546 84.6233 83.4368 84.718C83.219 84.8104 83.0497 84.9382 82.929 85.1016C82.8106 85.2625 82.7514 85.446 82.7514 85.652C82.7514 85.8248 82.7916 85.974 82.8721 86.0994C82.955 86.2249 83.0627 86.3303 83.1953 86.4155C83.3302 86.4983 83.4746 86.5682 83.6285 86.625C83.7824 86.6795 83.9304 86.7244 84.0724 86.7599L84.7826 86.9446C85.0147 87.0014 85.2526 87.0784 85.4964 87.1754C85.7403 87.2725 85.9664 87.4003 86.1747 87.5589C86.383 87.7176 86.5511 87.9141 86.679 88.1484C86.8092 88.3828 86.8743 88.6634 86.8743 88.9901C86.8743 89.402 86.7677 89.7678 86.5547 90.0874C86.344 90.407 86.0374 90.6591 85.6349 90.8438C85.2348 91.0284 84.7507 91.1207 84.1825 91.1207C83.638 91.1207 83.1669 91.0343 82.7692 90.8615C82.3714 90.6887 82.0601 90.4437 81.8352 90.1264C81.6103 89.8068 81.486 89.428 81.4623 88.9901H82.5632C82.5845 89.2528 82.6697 89.4718 82.8189 89.647C82.9704 89.8198 83.1633 89.9489 83.3977 90.0341C83.6344 90.117 83.8937 90.1584 84.1754 90.1584C84.4855 90.1584 84.7613 90.1098 85.0028 90.0128C85.2467 89.9134 85.4384 89.776 85.5781 89.6009C85.7178 89.4233 85.7876 89.2161 85.7876 88.9794C85.7876 88.764 85.7261 88.5876 85.603 88.4503C85.4822 88.313 85.3177 88.1993 85.1094 88.1094C84.9034 88.0194 84.6702 87.9401 84.4098 87.8714L83.5504 87.6371C82.968 87.4785 82.5064 87.2453 82.1655 86.9375C81.8269 86.6297 81.6576 86.2225 81.6576 85.7159C81.6576 85.2969 81.7713 84.9311 81.9986 84.6186C82.2258 84.3061 82.5336 84.0634 82.9219 83.8906C83.3101 83.7154 83.7481 83.6278 84.2358 83.6278C84.7282 83.6278 85.1626 83.7143 85.539 83.8871C85.9178 84.0599 86.2161 84.2978 86.4339 84.6009C86.6517 84.9015 86.7654 85.2472 86.7748 85.6378H85.7166ZM88.1913 91H87.0265L89.6437 83.7273H90.9115L93.5286 91H92.3639L90.3078 85.0483H90.2509L88.1913 91ZM88.3866 88.152H92.165V89.0753H88.3866V88.152Z" fill="white"/>
</svg>
