<svg width="500" height="368" viewBox="0 0 500 368" fill="none" xmlns="http://www.w3.org/2000/svg">
<path d="M6.84375 152V45.8182H52.8835C60.9716 45.8182 67.7635 46.907 73.2592 49.0845C78.7895 51.2621 82.9545 54.3383 85.7543 58.3132C88.5885 62.2881 90.0057 66.9716 90.0057 72.3636C90.0057 76.2694 89.1416 79.8295 87.4134 83.044C85.7197 86.2585 83.3348 88.9545 80.2585 91.1321C77.1823 93.2751 73.5876 94.7614 69.4744 95.5909V96.6278C74.0369 96.8007 78.1847 97.9586 81.9176 100.102C85.6506 102.21 88.6231 105.131 90.8352 108.864C93.0474 112.562 94.1534 116.917 94.1534 121.929C94.1534 127.736 92.6326 132.903 89.5909 137.431C86.5838 141.959 82.2978 145.519 76.733 148.112C71.1681 150.704 64.5317 152 56.8239 152H6.84375ZM35.6705 128.98H49.1506C53.9896 128.98 57.6188 128.081 60.0384 126.284C62.4579 124.452 63.6676 121.756 63.6676 118.196C63.6676 115.707 63.0973 113.599 61.9567 111.871C60.8161 110.143 59.1915 108.829 57.0831 107.93C55.0092 107.032 52.5033 106.582 49.5653 106.582H35.6705V128.98ZM35.6705 88.7472H47.4915C50.0147 88.7472 52.2441 88.3497 54.1797 87.5547C56.1153 86.7597 57.6188 85.6191 58.6903 84.1328C59.7964 82.612 60.3494 80.7628 60.3494 78.5852C60.3494 75.3016 59.1742 72.7957 56.8239 71.0675C54.4735 69.3047 51.5009 68.4233 47.9062 68.4233H35.6705V88.7472ZM207.231 98.9091C207.231 110.73 204.932 120.702 200.335 128.825C195.738 136.913 189.534 143.048 181.722 147.23C173.911 151.378 165.201 153.452 155.592 153.452C145.914 153.452 137.169 151.361 129.357 147.178C121.58 142.961 115.393 136.809 110.796 128.721C106.234 120.598 103.952 110.661 103.952 98.9091C103.952 87.0881 106.234 77.1335 110.796 69.0455C115.393 60.9228 121.58 54.7876 129.357 50.6399C137.169 46.4576 145.914 44.3665 155.592 44.3665C165.201 44.3665 173.911 46.4576 181.722 50.6399C189.534 54.7876 195.738 60.9228 200.335 69.0455C204.932 77.1335 207.231 87.0881 207.231 98.9091ZM177.575 98.9091C177.575 92.5492 176.728 87.1918 175.034 82.8366C173.375 78.447 170.904 75.1288 167.62 72.8821C164.371 70.6008 160.362 69.4602 155.592 69.4602C150.822 69.4602 146.795 70.6008 143.511 72.8821C140.262 75.1288 137.791 78.447 136.097 82.8366C134.438 87.1918 133.609 92.5492 133.609 98.9091C133.609 105.269 134.438 110.644 136.097 115.033C137.791 119.388 140.262 122.707 143.511 124.988C146.795 127.235 150.822 128.358 155.592 128.358C160.362 128.358 164.371 127.235 167.62 124.988C170.904 122.707 173.375 119.388 175.034 115.033C176.728 110.644 177.575 105.269 177.575 98.9091ZM220.568 152V45.8182H249.395V128.773H292.324V152H220.568ZM344.832 152H303.977V45.8182H344.417C355.339 45.8182 364.775 47.9439 372.725 52.1953C380.71 56.4122 386.862 62.4955 391.183 70.4453C395.538 78.3606 397.715 87.8485 397.715 98.9091C397.715 109.97 395.555 119.475 391.234 127.425C386.914 135.34 380.796 141.423 372.881 145.675C364.965 149.892 355.616 152 344.832 152ZM332.803 127.528H343.795C349.049 127.528 353.525 126.682 357.223 124.988C360.956 123.294 363.79 120.374 365.726 116.226C367.696 112.078 368.681 106.306 368.681 98.9091C368.681 91.5123 367.679 85.7401 365.674 81.5923C363.704 77.4446 360.8 74.5239 356.964 72.8303C353.162 71.1366 348.496 70.2898 342.965 70.2898H332.803V127.528ZM4.21875 230V164.545H32.5994C37.5852 164.545 41.772 165.217 45.1598 166.559C48.5689 167.901 51.1364 169.798 52.8622 172.248C54.6094 174.698 55.483 177.585 55.483 180.909C55.483 183.317 54.9503 185.511 53.8849 187.493C52.8409 189.474 51.3707 191.136 49.4744 192.479C47.5781 193.8 45.3622 194.716 42.8267 195.227V195.866C45.6392 195.973 48.196 196.687 50.4972 198.008C52.7983 199.308 54.6307 201.108 55.9943 203.409C57.358 205.689 58.0398 208.374 58.0398 211.463C58.0398 215.043 57.1023 218.228 55.2273 221.019C53.3736 223.81 50.7315 226.005 47.3011 227.603C43.8707 229.201 39.7798 230 35.0284 230H4.21875ZM21.9886 215.81H30.2983C33.2813 215.81 35.5185 215.256 37.0099 214.148C38.5014 213.018 39.2472 211.357 39.2472 209.162C39.2472 207.628 38.8956 206.328 38.1925 205.263C37.4893 204.197 36.4879 203.388 35.1882 202.834C33.9098 202.28 32.3651 202.003 30.554 202.003H21.9886V215.81ZM21.9886 191.009H29.2756C30.831 191.009 32.2053 190.763 33.3984 190.273C34.5916 189.783 35.5185 189.08 36.179 188.164C36.8608 187.227 37.2017 186.087 37.2017 184.744C37.2017 182.72 36.4773 181.175 35.0284 180.11C33.5795 179.023 31.7472 178.48 29.5312 178.48H21.9886V191.009ZM64.3359 230V164.545H92.5888C97.4467 164.545 101.697 165.43 105.341 167.198C108.984 168.967 111.818 171.513 113.842 174.837C115.866 178.161 116.879 182.145 116.879 186.79C116.879 191.477 115.835 195.43 113.746 198.647C111.68 201.864 108.771 204.293 105.021 205.934C101.293 207.575 96.9354 208.395 91.9496 208.395H75.0746V194.588H88.37C90.4581 194.588 92.2372 194.332 93.7074 193.821C95.1989 193.288 96.3388 192.447 97.1271 191.296C97.9368 190.146 98.3416 188.643 98.3416 186.79C98.3416 184.915 97.9368 183.391 97.1271 182.219C96.3388 181.026 95.1989 180.153 93.7074 179.599C92.2372 179.023 90.4581 178.736 88.37 178.736H82.1058V230H64.3359ZM102.688 199.957L119.052 230H99.7479L83.7678 199.957H102.688ZM141.456 230H122.28L143.885 164.545H168.175L189.78 230H170.604L156.286 182.571H155.774L141.456 230ZM137.876 204.176H173.928V217.472H137.876V204.176ZM213.854 164.545V230H196.084V164.545H213.854ZM278.909 164.545V230H264.079L240.429 195.611H240.045V230H222.275V164.545H237.361L260.628 198.807H261.139V164.545H278.909ZM284.63 164.545H304.445L317.229 191.136H317.741L330.525 164.545H350.34L326.306 209.418V230H308.664V209.418L284.63 164.545ZM4.21875 308V242.545H32.5994C37.5852 242.545 41.772 243.217 45.1598 244.559C48.5689 245.901 51.1364 247.798 52.8622 250.248C54.6094 252.698 55.483 255.585 55.483 258.909C55.483 261.317 54.9503 263.511 53.8849 265.493C52.8409 267.474 51.3707 269.136 49.4744 270.479C47.5781 271.8 45.3622 272.716 42.8267 273.227V273.866C45.6392 273.973 48.196 274.687 50.4972 276.008C52.7983 277.308 54.6307 279.108 55.9943 281.409C57.358 283.689 58.0398 286.374 58.0398 289.463C58.0398 293.043 57.1023 296.228 55.2273 299.019C53.3736 301.81 50.7315 304.005 47.3011 305.603C43.8707 307.201 39.7798 308 35.0284 308H4.21875ZM21.9886 293.81H30.2983C33.2813 293.81 35.5185 293.256 37.0099 292.148C38.5014 291.018 39.2472 289.357 39.2472 287.162C39.2472 285.628 38.8956 284.328 38.1925 283.263C37.4893 282.197 36.4879 281.388 35.1882 280.834C33.9098 280.28 32.3651 280.003 30.554 280.003H21.9886V293.81ZM21.9886 269.009H29.2756C30.831 269.009 32.2053 268.763 33.3984 268.273C34.5916 267.783 35.5185 267.08 36.179 266.164C36.8608 265.227 37.2017 264.087 37.2017 262.744C37.2017 260.72 36.4773 259.175 35.0284 258.11C33.5795 257.023 31.7472 256.48 29.5312 256.48H21.9886V269.009ZM64.3359 308V242.545H92.5888C97.4467 242.545 101.697 243.43 105.341 245.198C108.984 246.967 111.818 249.513 113.842 252.837C115.866 256.161 116.879 260.145 116.879 264.79C116.879 269.477 115.835 273.43 113.746 276.647C111.68 279.864 108.771 282.293 105.021 283.934C101.293 285.575 96.9354 286.395 91.9496 286.395H75.0746V272.588H88.37C90.4581 272.588 92.2372 272.332 93.7074 271.821C95.1989 271.288 96.3388 270.447 97.1271 269.296C97.9368 268.146 98.3416 266.643 98.3416 264.79C98.3416 262.915 97.9368 261.391 97.1271 260.219C96.3388 259.026 95.1989 258.153 93.7074 257.599C92.2372 257.023 90.4581 256.736 88.37 256.736H82.1058V308H64.3359ZM102.688 277.957L119.052 308H99.7479L83.7678 277.957H102.688ZM141.456 308H122.28L143.885 242.545H168.175L189.78 308H170.604L156.286 260.571H155.774L141.456 308ZM137.876 282.176H173.928V295.472H137.876V282.176ZM204.49 242.545L217.913 288.696H218.424L231.847 242.545H251.919L230.313 308H206.024L184.419 242.545H204.49ZM258.223 308V242.545H305.396V256.864H275.993V268.114H302.967V282.432H275.993V293.682H305.268V308H258.223ZM3.35014 359V320.455H18.7834C21.6191 320.455 23.9843 320.875 25.8789 321.716C27.7736 322.556 29.1977 323.723 30.1513 325.216C31.1049 326.697 31.5817 328.403 31.5817 330.336C31.5817 331.841 31.2805 333.165 30.6783 334.307C30.076 335.436 29.2479 336.365 28.1939 337.092C27.1525 337.808 25.9605 338.316 24.6179 338.617V338.993C26.0859 339.056 27.4599 339.47 28.7397 340.235C30.0321 341.001 31.0798 342.074 31.8828 343.454C32.6858 344.821 33.0874 346.453 33.0874 348.347C33.0874 350.393 32.5792 352.218 31.5629 353.824C30.5591 355.418 29.0722 356.679 27.1023 357.607C25.1323 358.536 22.7044 359 19.8185 359H3.35014ZM11.4996 352.337H18.1435C20.4145 352.337 22.0708 351.904 23.1122 351.039C24.1536 350.16 24.6744 348.993 24.6744 347.538C24.6744 346.471 24.4171 345.53 23.9027 344.715C23.3883 343.899 22.6542 343.259 21.7006 342.795C20.7596 342.331 19.6366 342.099 18.3317 342.099H11.4996V352.337ZM11.4996 336.584H17.5412C18.6579 336.584 19.6491 336.39 20.5149 336.001C21.3932 335.599 22.0833 335.035 22.5852 334.307C23.0997 333.579 23.3569 332.707 23.3569 331.691C23.3569 330.298 22.8613 329.175 21.87 328.322C20.8913 327.469 19.4986 327.042 17.6918 327.042H11.4996V336.584ZM38.3902 359V320.455H64.3632V327.174H46.5397V336.358H63.0269V343.077H46.5397V352.281H64.4385V359H38.3902ZM77.4862 359H68.7532L82.0597 320.455H92.5618L105.849 359H97.1165L87.4613 329.263H87.1602L77.4862 359ZM76.9403 343.849H97.5682V350.211H76.9403V343.849ZM134.297 320.455H142.447V345.487C142.447 348.297 141.776 350.756 140.433 352.864C139.103 354.972 137.24 356.616 134.843 357.795C132.447 358.962 129.655 359.546 126.468 359.546C123.268 359.546 120.47 358.962 118.074 357.795C115.677 356.616 113.814 354.972 112.484 352.864C111.154 350.756 110.489 348.297 110.489 345.487V320.455H118.638V344.79C118.638 346.258 118.958 347.563 119.598 348.705C120.251 349.847 121.167 350.744 122.346 351.396C123.526 352.049 124.899 352.375 126.468 352.375C128.049 352.375 129.423 352.049 130.59 351.396C131.769 350.744 132.679 349.847 133.319 348.705C133.971 347.563 134.297 346.258 134.297 344.79V320.455ZM147.684 327.174V320.455H179.341V327.174H167.54V359H159.485V327.174H147.684ZM192.704 320.455V359H184.554V320.455H192.704ZM199.409 359V320.455H224.93V327.174H207.558V336.358H223.236V343.077H207.558V359H199.409ZM254.22 320.455H262.37V345.487C262.37 348.297 261.698 350.756 260.356 352.864C259.026 354.972 257.163 356.616 254.766 357.795C252.37 358.962 249.578 359.546 246.391 359.546C243.191 359.546 240.393 358.962 237.997 357.795C235.6 356.616 233.737 354.972 232.407 352.864C231.077 350.756 230.412 348.297 230.412 345.487V320.455H238.561V344.79C238.561 346.258 238.881 347.563 239.521 348.705C240.174 349.847 241.089 350.744 242.269 351.396C243.448 352.049 244.822 352.375 246.391 352.375C247.972 352.375 249.346 352.049 250.513 351.396C251.692 350.744 252.602 349.847 253.242 348.705C253.894 347.563 254.22 346.258 254.22 344.79V320.455ZM269.075 359V320.455H277.224V352.281H293.749V359H269.075Z" fill="url(#paint0_linear_164_10)"/>
<path d="M16.9375 32.3633C15.25 32.3633 13.7773 31.9766 12.5195 31.2031C11.2617 30.4297 10.2852 29.3477 9.58984 27.957C8.89453 26.5664 8.54688 24.9414 8.54688 23.082C8.54688 21.2148 8.89453 19.582 9.58984 18.1836C10.2852 16.7852 11.2617 15.6992 12.5195 14.9258C13.7773 14.1523 15.25 13.7656 16.9375 13.7656C18.625 13.7656 20.0977 14.1523 21.3555 14.9258C22.6133 15.6992 23.5898 16.7852 24.2852 18.1836C24.9805 19.582 25.3281 21.2148 25.3281 23.082C25.3281 24.9414 24.9805 26.5664 24.2852 27.957C23.5898 29.3477 22.6133 30.4297 21.3555 31.2031C20.0977 31.9766 18.625 32.3633 16.9375 32.3633ZM16.9492 29.4219C18.043 29.4219 18.9492 29.1328 19.668 28.5547C20.3867 27.9766 20.918 27.207 21.2617 26.2461C21.6133 25.2852 21.7891 24.2266 21.7891 23.0703C21.7891 21.9219 21.6133 20.8672 21.2617 19.9062C20.918 18.9375 20.3867 18.1602 19.668 17.5742C18.9492 16.9883 18.043 16.6953 16.9492 16.6953C15.8477 16.6953 14.9336 16.9883 14.207 17.5742C13.4883 18.1602 12.9531 18.9375 12.6016 19.9062C12.2578 20.8672 12.0859 21.9219 12.0859 23.0703C12.0859 24.2266 12.2578 25.2852 12.6016 26.2461C12.9531 27.207 13.4883 27.9766 14.207 28.5547C14.9336 29.1328 15.8477 29.4219 16.9492 29.4219ZM32.7432 21.3125V32H29.2393V14H32.6025V16.9297H32.8252C33.2393 15.9766 33.8877 15.2109 34.7705 14.6328C35.6611 14.0547 36.7822 13.7656 38.1338 13.7656C39.3604 13.7656 40.4346 14.0234 41.3564 14.5391C42.2783 15.0469 42.9932 15.8047 43.501 16.8125C44.0088 17.8203 44.2627 19.0664 44.2627 20.5508V32H40.7588V20.9727C40.7588 19.668 40.4189 18.6484 39.7393 17.9141C39.0596 17.1719 38.126 16.8008 36.9385 16.8008C36.126 16.8008 35.4033 16.9766 34.7705 17.3281C34.1455 17.6797 33.6494 18.1953 33.2822 18.875C32.9229 19.5469 32.7432 20.3594 32.7432 21.3125ZM52.4658 8V32H48.9619V8H52.4658ZM59.3945 38.75C58.8711 38.75 58.3945 38.707 57.9648 38.6211C57.5352 38.543 57.2148 38.457 57.0039 38.3633L57.8477 35.4922C58.4883 35.6641 59.0586 35.7383 59.5586 35.7148C60.0586 35.6914 60.5 35.5039 60.8828 35.1523C61.2734 34.8008 61.6172 34.2266 61.9141 33.4297L62.3477 32.2344L55.7617 14H59.5117L64.0703 27.9687H64.2578L68.8164 14H72.5781L65.1602 34.4023C64.8164 35.3398 64.3789 36.1328 63.8477 36.7813C63.3164 37.4375 62.6836 37.9297 61.9492 38.2578C61.2148 38.5859 60.3633 38.75 59.3945 38.75ZM93.1709 14V16.8125H82.999V14H93.1709ZM85.7881 32V11.9141C85.7881 10.7891 86.0342 9.85547 86.5264 9.11328C87.0186 8.36328 87.6709 7.80469 88.4834 7.4375C89.2959 7.0625 90.1787 6.875 91.1318 6.875C91.835 6.875 92.4365 6.93359 92.9365 7.05078C93.4365 7.16016 93.8076 7.26172 94.0498 7.35547L93.2295 10.1914C93.0654 10.1445 92.8545 10.0898 92.5967 10.0273C92.3389 9.95703 92.0264 9.92187 91.6592 9.92187C90.8076 9.92187 90.1982 10.1328 89.8311 10.5547C89.4717 10.9766 89.292 11.5859 89.292 12.3828V32H85.7881ZM103.659 32.3633C101.972 32.3633 100.499 31.9766 99.2412 31.2031C97.9834 30.4297 97.0068 29.3477 96.3115 27.957C95.6162 26.5664 95.2686 24.9414 95.2686 23.082C95.2686 21.2148 95.6162 19.582 96.3115 18.1836C97.0068 16.7852 97.9834 15.6992 99.2412 14.9258C100.499 14.1523 101.972 13.7656 103.659 13.7656C105.347 13.7656 106.819 14.1523 108.077 14.9258C109.335 15.6992 110.312 16.7852 111.007 18.1836C111.702 19.582 112.05 21.2148 112.05 23.082C112.05 24.9414 111.702 26.5664 111.007 27.957C110.312 29.3477 109.335 30.4297 108.077 31.2031C106.819 31.9766 105.347 32.3633 103.659 32.3633ZM103.671 29.4219C104.765 29.4219 105.671 29.1328 106.39 28.5547C107.108 27.9766 107.64 27.207 107.983 26.2461C108.335 25.2852 108.511 24.2266 108.511 23.0703C108.511 21.9219 108.335 20.8672 107.983 19.9062C107.64 18.9375 107.108 18.1602 106.39 17.5742C105.671 16.9883 104.765 16.6953 103.671 16.6953C102.569 16.6953 101.655 16.9883 100.929 17.5742C100.21 18.1602 99.6748 18.9375 99.3232 19.9062C98.9795 20.8672 98.8076 21.9219 98.8076 23.0703C98.8076 24.2266 98.9795 25.2852 99.3232 26.2461C99.6748 27.207 100.21 27.9766 100.929 28.5547C101.655 29.1328 102.569 29.4219 103.671 29.4219ZM115.961 32V14H119.348V16.8594H119.535C119.863 15.8906 120.441 15.1289 121.27 14.5742C122.105 14.0117 123.051 13.7305 124.105 13.7305C124.324 13.7305 124.582 13.7383 124.879 13.7539C125.184 13.7695 125.422 13.7891 125.594 13.8125V17.1641C125.453 17.125 125.203 17.082 124.844 17.0352C124.484 16.9805 124.125 16.9531 123.766 16.9531C122.938 16.9531 122.199 17.1289 121.551 17.4805C120.91 17.8242 120.402 18.3047 120.027 18.9219C119.652 19.5312 119.465 20.2266 119.465 21.0078V32H115.961ZM136.668 15.5V13.25C136.668 12.5859 136.793 11.8867 137.043 11.1523C137.293 10.418 137.641 9.71484 138.086 9.04297C138.531 8.37109 139.055 7.79687 139.656 7.32031L141.391 8.5625C140.914 9.25781 140.508 9.98437 140.172 10.7422C139.836 11.5 139.668 12.3242 139.668 13.2148V15.5H136.668ZM157.788 14.3047C157.663 13.1953 157.147 12.3359 156.241 11.7266C155.335 11.1094 154.194 10.8008 152.819 10.8008C151.835 10.8008 150.983 10.957 150.265 11.2695C149.546 11.5742 148.987 11.9961 148.589 12.5352C148.198 13.0664 148.003 13.6719 148.003 14.3516C148.003 14.9219 148.136 15.4141 148.401 15.8281C148.675 16.2422 149.03 16.5898 149.468 16.8711C149.913 17.1445 150.39 17.375 150.897 17.5625C151.405 17.7422 151.894 17.8906 152.362 18.0078L154.706 18.6172C155.472 18.8047 156.257 19.0586 157.062 19.3789C157.866 19.6992 158.612 20.1211 159.3 20.6445C159.987 21.168 160.542 21.8164 160.964 22.5898C161.394 23.3633 161.608 24.2891 161.608 25.3672C161.608 26.7266 161.257 27.9336 160.554 28.9883C159.858 30.043 158.847 30.875 157.519 31.4844C156.198 32.0938 154.601 32.3984 152.726 32.3984C150.929 32.3984 149.374 32.1133 148.062 31.543C146.749 30.9727 145.722 30.1641 144.979 29.1172C144.237 28.0625 143.827 26.8125 143.749 25.3672H147.382C147.452 26.2344 147.733 26.957 148.226 27.5352C148.726 28.1055 149.362 28.5312 150.136 28.8125C150.917 29.0859 151.772 29.2227 152.702 29.2227C153.726 29.2227 154.636 29.0625 155.433 28.7422C156.237 28.4141 156.87 27.9609 157.331 27.3828C157.792 26.7969 158.022 26.1133 158.022 25.332C158.022 24.6211 157.819 24.0391 157.413 23.5859C157.015 23.1328 156.472 22.7578 155.784 22.4609C155.104 22.1641 154.335 21.9023 153.476 21.6758L150.64 20.9023C148.718 20.3789 147.194 19.6094 146.069 18.5938C144.952 17.5781 144.394 16.2344 144.394 14.5625C144.394 13.1797 144.769 11.9727 145.519 10.9414C146.269 9.91015 147.284 9.10937 148.565 8.53906C149.847 7.96094 151.292 7.67187 152.901 7.67187C154.526 7.67187 155.96 7.95703 157.202 8.52734C158.452 9.09766 159.437 9.88281 160.155 10.8828C160.874 11.875 161.249 13.0156 161.28 14.3047H157.788ZM169.158 21.3125V32H165.654V8H169.111V16.9297H169.334C169.756 15.9609 170.4 15.1914 171.268 14.6211C172.135 14.0508 173.268 13.7656 174.666 13.7656C175.9 13.7656 176.979 14.0195 177.9 14.5273C178.83 15.0352 179.549 15.793 180.057 16.8008C180.572 17.8008 180.83 19.0508 180.83 20.5508V32H177.326V20.9727C177.326 19.6523 176.986 18.6289 176.307 17.9023C175.627 17.168 174.682 16.8008 173.471 16.8008C172.643 16.8008 171.9 16.9766 171.244 17.3281C170.596 17.6797 170.084 18.1953 169.709 18.875C169.342 19.5469 169.158 20.3594 169.158 21.3125ZM193.264 32.3633C191.49 32.3633 189.963 31.9844 188.682 31.2266C187.408 30.4609 186.424 29.3867 185.729 28.0039C185.041 26.6133 184.697 24.9844 184.697 23.1172C184.697 21.2734 185.041 19.6484 185.729 18.2422C186.424 16.8359 187.393 15.7383 188.635 14.9492C189.885 14.1602 191.346 13.7656 193.018 13.7656C194.033 13.7656 195.018 13.9336 195.971 14.2695C196.924 14.6055 197.779 15.1328 198.537 15.8516C199.295 16.5703 199.893 17.5039 200.33 18.6523C200.768 19.793 200.986 21.1797 200.986 22.8125V24.0547H186.678V21.4297H197.553C197.553 20.5078 197.365 19.6914 196.99 18.9805C196.615 18.2617 196.088 17.6953 195.408 17.2812C194.736 16.8672 193.947 16.6602 193.041 16.6602C192.057 16.6602 191.197 16.9023 190.463 17.3867C189.736 17.8633 189.174 18.4883 188.775 19.2617C188.385 20.0273 188.189 20.8594 188.189 21.7578V23.8086C188.189 25.0117 188.4 26.0352 188.822 26.8789C189.252 27.7227 189.85 28.3672 190.615 28.8125C191.381 29.25 192.275 29.4687 193.299 29.4687C193.963 29.4687 194.568 29.375 195.115 29.1875C195.662 28.9922 196.135 28.7031 196.533 28.3203C196.932 27.9375 197.236 27.4648 197.447 26.9023L200.764 27.5C200.498 28.4766 200.021 29.332 199.334 30.0664C198.654 30.793 197.799 31.3594 196.768 31.7656C195.744 32.1641 194.576 32.3633 193.264 32.3633ZM207.886 8V10.25C207.886 10.9141 207.761 11.6133 207.511 12.3477C207.269 13.0742 206.925 13.7734 206.479 14.4453C206.034 15.1172 205.511 15.6953 204.909 16.1797L203.175 14.9375C203.636 14.2656 204.034 13.5508 204.37 12.793C204.714 12.0352 204.886 11.1992 204.886 10.2852V8H207.886ZM224.084 32L218.787 14H222.408L225.936 27.2187H226.111L229.65 14H233.271L236.787 27.1602H236.963L240.467 14H244.088L238.803 32H235.229L231.572 19.0039H231.303L227.646 32H224.084ZM250.917 21.3125V32H247.413V8H250.87V16.9297H251.093C251.515 15.9609 252.159 15.1914 253.026 14.6211C253.894 14.0508 255.026 13.7656 256.425 13.7656C257.659 13.7656 258.737 14.0195 259.659 14.5273C260.589 15.0352 261.308 15.793 261.815 16.8008C262.331 17.8008 262.589 19.0508 262.589 20.5508V32H259.085V20.9727C259.085 19.6523 258.745 18.6289 258.065 17.9023C257.386 17.168 256.44 16.8008 255.229 16.8008C254.401 16.8008 253.659 16.9766 253.003 17.3281C252.354 17.6797 251.843 18.1953 251.468 18.875C251.101 19.5469 250.917 20.3594 250.917 21.3125ZM274.847 32.3633C273.159 32.3633 271.687 31.9766 270.429 31.2031C269.171 30.4297 268.194 29.3477 267.499 27.957C266.804 26.5664 266.456 24.9414 266.456 23.082C266.456 21.2148 266.804 19.582 267.499 18.1836C268.194 16.7852 269.171 15.6992 270.429 14.9258C271.687 14.1523 273.159 13.7656 274.847 13.7656C276.534 13.7656 278.007 14.1523 279.265 14.9258C280.522 15.6992 281.499 16.7852 282.194 18.1836C282.89 19.582 283.237 21.2148 283.237 23.082C283.237 24.9414 282.89 26.5664 282.194 27.957C281.499 29.3477 280.522 30.4297 279.265 31.2031C278.007 31.9766 276.534 32.3633 274.847 32.3633ZM274.858 29.4219C275.952 29.4219 276.858 29.1328 277.577 28.5547C278.296 27.9766 278.827 27.207 279.171 26.2461C279.522 25.2852 279.698 24.2266 279.698 23.0703C279.698 21.9219 279.522 20.8672 279.171 19.9062C278.827 18.9375 278.296 18.1602 277.577 17.5742C276.858 16.9883 275.952 16.6953 274.858 16.6953C273.757 16.6953 272.843 16.9883 272.116 17.5742C271.397 18.1602 270.862 18.9375 270.511 19.9062C270.167 20.8672 269.995 21.9219 269.995 23.0703C269.995 24.2266 270.167 25.2852 270.511 26.2461C270.862 27.207 271.397 27.9766 272.116 28.5547C272.843 29.1328 273.757 29.4219 274.858 29.4219ZM295.882 32V14H299.386V32H295.882ZM297.651 11.2227C297.042 11.2227 296.519 11.0195 296.081 10.6133C295.651 10.1992 295.437 9.70703 295.437 9.13672C295.437 8.55859 295.651 8.06641 296.081 7.66015C296.519 7.24609 297.042 7.03906 297.651 7.03906C298.261 7.03906 298.78 7.24609 299.21 7.66015C299.647 8.06641 299.866 8.55859 299.866 9.13672C299.866 9.70703 299.647 10.1992 299.21 10.6133C298.78 11.0195 298.261 11.2227 297.651 11.2227ZM317.588 18.3945L314.412 18.957C314.279 18.5508 314.068 18.1641 313.779 17.7969C313.498 17.4297 313.115 17.1289 312.631 16.8945C312.146 16.6602 311.541 16.543 310.814 16.543C309.822 16.543 308.994 16.7656 308.33 17.2109C307.666 17.6484 307.334 18.2148 307.334 18.9102C307.334 19.5117 307.557 19.9961 308.002 20.3633C308.447 20.7305 309.166 21.0312 310.158 21.2656L313.018 21.9219C314.674 22.3047 315.908 22.8945 316.721 23.6914C317.533 24.4883 317.939 25.5234 317.939 26.7969C317.939 27.875 317.627 28.8359 317.002 29.6797C316.385 30.5156 315.521 31.1719 314.412 31.6484C313.311 32.125 312.033 32.3633 310.58 32.3633C308.564 32.3633 306.92 31.9336 305.646 31.0742C304.373 30.207 303.592 28.9766 303.303 27.3828L306.689 26.8672C306.9 27.75 307.334 28.418 307.99 28.8711C308.646 29.3164 309.502 29.5391 310.557 29.5391C311.705 29.5391 312.623 29.3008 313.311 28.8242C313.998 28.3398 314.342 27.75 314.342 27.0547C314.342 26.4922 314.131 26.0195 313.709 25.6367C313.295 25.2539 312.658 24.9648 311.799 24.7695L308.752 24.1016C307.072 23.7188 305.83 23.1094 305.025 22.2734C304.229 21.4375 303.83 20.3789 303.83 19.0977C303.83 18.0352 304.127 17.1055 304.721 16.3086C305.314 15.5117 306.135 14.8906 307.182 14.4453C308.229 13.9922 309.428 13.7656 310.779 13.7656C312.725 13.7656 314.256 14.1875 315.373 15.0312C316.49 15.8672 317.229 16.9883 317.588 18.3945Z" fill="white"/>
<path d="M324.638 302.492C320.042 300.394 316.455 297.771 313.878 294.625C311.301 291.479 309.749 288.133 309.223 284.585C308.697 281.038 309.187 277.614 310.695 274.314C311.792 271.912 313.219 270.001 314.978 268.583C316.746 267.143 318.808 266.027 321.164 265.235C323.52 264.443 326.149 263.8 329.05 263.307L347.709 260.922C349.591 260.671 351.018 260.173 351.988 259.43C352.968 258.666 353.635 257.897 353.988 257.124C354.455 256.101 354.494 255.02 354.104 253.883C353.715 252.746 352.722 251.825 351.124 251.121C350.143 250.673 349.211 250.475 348.329 250.526C347.457 250.557 346.674 250.806 345.981 251.272C345.31 251.748 344.769 252.435 344.359 253.333C343.796 254.566 343.574 255.992 343.693 257.611C343.821 259.21 344.163 261.032 344.718 263.078C345.273 265.124 345.904 267.419 346.611 269.963L362.069 318.373L344.773 310.475L331.294 270.997C330.64 269.057 329.988 266.753 329.339 264.083C328.7 261.393 328.383 258.547 328.39 255.546C328.418 252.555 329.1 249.597 330.436 246.673C331.924 243.414 334.066 240.795 336.863 238.816C339.661 236.836 342.836 235.686 346.391 235.365C349.945 235.045 353.603 235.743 357.363 237.46C360.956 239.1 363.709 241.254 365.622 243.92C367.556 246.595 368.66 249.485 368.934 252.589C369.229 255.702 368.699 258.742 367.344 261.709C365.98 264.696 363.965 267.146 361.299 269.059C358.654 270.981 355.52 272.289 351.896 272.982L334.318 276.316C332.97 276.559 331.711 276.968 330.539 277.544C329.388 278.129 328.479 279.153 327.811 280.615C327.258 281.827 327.068 282.989 327.241 284.103C327.414 285.217 327.907 286.238 328.721 287.165C329.555 288.101 330.672 288.889 332.072 289.528C334.203 290.501 336.567 290.962 339.165 290.912C341.794 290.85 344.42 290.295 347.045 289.246C349.679 288.177 352.11 286.611 354.339 284.549C356.599 282.476 358.42 279.925 359.803 276.896L373.465 283.134C371.767 286.852 369.745 290.259 367.398 293.352C365.051 296.446 362.368 299.033 359.348 301.112C356.328 303.192 352.971 304.575 349.275 305.26C348.197 305.298 347.15 305.325 346.133 305.34C345.116 305.356 344.069 305.382 342.991 305.42C339.669 305.897 336.45 305.841 333.336 305.252C330.232 304.643 327.332 303.723 324.638 302.492Z" fill="white"/>
<defs>
<linearGradient id="paint0_linear_164_10" x1="523.148" y1="33.27" x2="75.6954" y2="448.674" gradientUnits="userSpaceOnUse">
<stop stop-color="#F687E5"/>
<stop offset="1" stop-color="#BD1669"/>
</linearGradient>
</defs>
</svg>
