<svg width="152" height="152" viewBox="0 0 152 152" fill="none" xmlns="http://www.w3.org/2000/svg">
<path d="M47.3965 65V49H57.3184V51.0781H49.8105V55.9531H56.6074V58.0234H49.8105V65H47.3965ZM74.1855 57C74.1855 58.7083 73.873 60.1771 73.248 61.4062C72.623 62.6302 71.7663 63.5729 70.6777 64.2344C69.5944 64.8906 68.3626 65.2187 66.9824 65.2187C65.597 65.2187 64.36 64.8906 63.2715 64.2344C62.1882 63.5729 61.334 62.6276 60.709 61.3984C60.084 60.1693 59.7715 58.7031 59.7715 57C59.7715 55.2917 60.084 53.8255 60.709 52.6016C61.334 51.3724 62.1882 50.4297 63.2715 49.7734C64.36 49.112 65.597 48.7812 66.9824 48.7812C68.3626 48.7812 69.5944 49.112 70.6777 49.7734C71.7663 50.4297 72.623 51.3724 73.248 52.6016C73.873 53.8255 74.1855 55.2917 74.1855 57ZM71.7949 57C71.7949 55.6979 71.584 54.6016 71.1621 53.7109C70.7454 52.8151 70.1725 52.138 69.4434 51.6797C68.7194 51.2161 67.8991 50.9844 66.9824 50.9844C66.0605 50.9844 65.2376 51.2161 64.5137 51.6797C63.7897 52.138 63.2168 52.8151 62.7949 53.7109C62.3783 54.6016 62.1699 55.6979 62.1699 57C62.1699 58.3021 62.3783 59.401 62.7949 60.2969C63.2168 61.1875 63.7897 61.8646 64.5137 62.3281C65.2376 62.7865 66.0605 63.0156 66.9824 63.0156C67.8991 63.0156 68.7194 62.7865 69.4434 62.3281C70.1725 61.8646 70.7454 61.1875 71.1621 60.2969C71.584 59.401 71.7949 58.3021 71.7949 57ZM77.1953 65V49H82.8984C84.138 49 85.1667 49.2135 85.9844 49.6406C86.8073 50.0677 87.4219 50.6589 87.8281 51.4141C88.2344 52.1641 88.4375 53.0312 88.4375 54.0156C88.4375 54.9948 88.2318 55.8568 87.8203 56.6016C87.4141 57.3411 86.7995 57.9167 85.9766 58.3281C85.1589 58.7396 84.1302 58.9453 82.8906 58.9453H78.5703V56.8672H82.6719C83.4531 56.8672 84.0885 56.7552 84.5781 56.5312C85.0729 56.3073 85.4349 55.9818 85.6641 55.5547C85.8932 55.1276 86.0078 54.6146 86.0078 54.0156C86.0078 53.4115 85.8906 52.888 85.6563 52.4453C85.4271 52.0026 85.0651 51.6641 84.5703 51.4297C84.0807 51.1901 83.4375 51.0703 82.6406 51.0703H79.6094V65H77.1953ZM85.0938 57.7812L89.0469 65H86.2969L82.4219 57.7812H85.0938ZM91.375 49H94.3047L99.3984 61.4375H99.5859L104.68 49H107.609V65H105.313V53.4219H105.164L100.445 64.9766H98.5391L93.8203 53.4141H93.6719V65H91.375V49ZM43.9277 71V87H40.3027L34.5215 78.5937H34.4277V87H30.084V71H33.7715L39.459 79.375H39.584V71H43.9277ZM53.8574 71V87H49.5137V75H49.4199L45.9199 77.0937V73.4062L49.8574 71H53.8574ZM64.1113 87.4375C62.6582 87.4323 61.403 87.0964 60.3457 86.4297C59.2884 85.763 58.4733 84.8021 57.9004 83.5469C57.3275 82.2917 57.0436 80.7865 57.0488 79.0313C57.054 77.2708 57.3405 75.776 57.9082 74.5469C58.4811 73.3177 59.2936 72.3828 60.3457 71.7422C61.403 71.1016 62.6582 70.7812 64.1113 70.7812C65.5645 70.7812 66.8197 71.1042 67.877 71.75C68.9342 72.3906 69.7493 73.3255 70.3223 74.5547C70.8952 75.7839 71.179 77.276 71.1738 79.0313C71.1738 80.7969 70.8874 82.3073 70.3145 83.5625C69.7415 84.8177 68.9264 85.7786 67.8691 86.4453C66.8171 87.1068 65.5645 87.4375 64.1113 87.4375ZM64.1113 83.9062C64.8613 83.9062 65.4759 83.5156 65.9551 82.7344C66.4395 81.9479 66.679 80.7135 66.6738 79.0313C66.6738 77.9323 66.5645 77.0339 66.3457 76.3359C66.127 75.638 65.8249 75.1224 65.4395 74.7891C65.054 74.4505 64.6113 74.2812 64.1113 74.2812C63.3613 74.2812 62.7493 74.6615 62.2754 75.4219C61.8014 76.1823 61.5592 77.3854 61.5488 79.0313C61.5436 80.151 61.6504 81.0729 61.8691 81.7969C62.0879 82.5156 62.39 83.0469 62.7754 83.3906C63.166 83.7344 63.6113 83.9062 64.1113 83.9062ZM76.7227 84.8125L76.6602 85.6875C76.6081 86.4375 76.4831 87.1563 76.2852 87.8438C76.0924 88.5313 75.8867 89.1406 75.668 89.6719C75.4544 90.2031 75.2852 90.6146 75.1602 90.9063H72.5039C72.5872 90.6146 72.7044 90.1927 72.8555 89.6406C73.0117 89.0938 73.1523 88.474 73.2773 87.7812C73.4076 87.0937 73.4727 86.3958 73.4727 85.6875V84.8125H76.7227ZM85.7676 87.4375C84.3145 87.4323 83.0592 87.0964 82.002 86.4297C80.9447 85.763 80.1296 84.8021 79.5566 83.5469C78.9837 82.2917 78.6999 80.7865 78.7051 79.0313C78.7103 77.2708 78.9967 75.776 79.5645 74.5469C80.1374 73.3177 80.9499 72.3828 82.002 71.7422C83.0592 71.1016 84.3145 70.7812 85.7676 70.7812C87.2207 70.7812 88.4759 71.1042 89.5332 71.75C90.5905 72.3906 91.4056 73.3255 91.9785 74.5547C92.5514 75.7839 92.8353 77.276 92.8301 79.0313C92.8301 80.7969 92.5436 82.3073 91.9707 83.5625C91.3978 84.8177 90.5827 85.7786 89.5254 86.4453C88.4733 87.1068 87.2207 87.4375 85.7676 87.4375ZM85.7676 83.9062C86.5176 83.9062 87.1322 83.5156 87.6113 82.7344C88.0957 81.9479 88.3353 80.7135 88.3301 79.0313C88.3301 77.9323 88.2207 77.0339 88.002 76.3359C87.7832 75.638 87.4811 75.1224 87.0957 74.7891C86.7103 74.4505 86.2676 74.2812 85.7676 74.2812C85.0176 74.2812 84.4056 74.6615 83.9316 75.4219C83.4577 76.1823 83.2155 77.3854 83.2051 79.0313C83.1999 80.151 83.3066 81.0729 83.5254 81.7969C83.7441 82.5156 84.0462 83.0469 84.4316 83.3906C84.8223 83.7344 85.2676 83.9062 85.7676 83.9062ZM101.838 87.4375C100.385 87.4323 99.1296 87.0964 98.0723 86.4297C97.015 85.763 96.1999 84.8021 95.627 83.5469C95.054 82.2917 94.7702 80.7865 94.7754 79.0313C94.7806 77.2708 95.0671 75.776 95.6348 74.5469C96.2077 73.3177 97.0202 72.3828 98.0723 71.7422C99.1296 71.1016 100.385 70.7812 101.838 70.7812C103.291 70.7812 104.546 71.1042 105.604 71.75C106.661 72.3906 107.476 73.3255 108.049 74.5547C108.622 75.7839 108.906 77.276 108.9 79.0313C108.9 80.7969 108.614 82.3073 108.041 83.5625C107.468 84.8177 106.653 85.7786 105.596 86.4453C104.544 87.1068 103.291 87.4375 101.838 87.4375ZM101.838 83.9062C102.588 83.9062 103.202 83.5156 103.682 82.7344C104.166 81.9479 104.406 80.7135 104.4 79.0313C104.4 77.9323 104.291 77.0339 104.072 76.3359C103.854 75.638 103.551 75.1224 103.166 74.7891C102.781 74.4505 102.338 74.2812 101.838 74.2812C101.088 74.2812 100.476 74.6615 100.002 75.4219C99.528 76.1823 99.2858 77.3854 99.2754 79.0313C99.2702 80.151 99.377 81.0729 99.5957 81.7969C99.8145 82.5156 100.117 83.0469 100.502 83.3906C100.893 83.7344 101.338 83.9062 101.838 83.9062ZM117.908 87.4375C116.455 87.4323 115.2 87.0964 114.143 86.4297C113.085 85.763 112.27 84.8021 111.697 83.5469C111.124 82.2917 110.84 80.7865 110.846 79.0313C110.851 77.2708 111.137 75.776 111.705 74.5469C112.278 73.3177 113.09 72.3828 114.143 71.7422C115.2 71.1016 116.455 70.7812 117.908 70.7812C119.361 70.7812 120.617 71.1042 121.674 71.75C122.731 72.3906 123.546 73.3255 124.119 74.5547C124.692 75.7839 124.976 77.276 124.971 79.0313C124.971 80.7969 124.684 82.3073 124.111 83.5625C123.538 84.8177 122.723 85.7786 121.666 86.4453C120.614 87.1068 119.361 87.4375 117.908 87.4375ZM117.908 83.9062C118.658 83.9062 119.273 83.5156 119.752 82.7344C120.236 81.9479 120.476 80.7135 120.471 79.0313C120.471 77.9323 120.361 77.0339 120.143 76.3359C119.924 75.638 119.622 75.1224 119.236 74.7891C118.851 74.4505 118.408 74.2812 117.908 74.2812C117.158 74.2812 116.546 74.6615 116.072 75.4219C115.598 76.1823 115.356 77.3854 115.346 79.0313C115.34 80.151 115.447 81.0729 115.666 81.7969C115.885 82.5156 116.187 83.0469 116.572 83.3906C116.963 83.7344 117.408 83.9062 117.908 83.9062ZM63.3359 101C63.3359 102.708 63.0234 104.177 62.3984 105.406C61.7734 106.63 60.9167 107.573 59.8281 108.234C58.7448 108.891 57.513 109.219 56.1328 109.219C54.7474 109.219 53.5104 108.891 52.4219 108.234C51.3385 107.573 50.4844 106.628 49.8594 105.398C49.2344 104.169 48.9219 102.703 48.9219 101C48.9219 99.2917 49.2344 97.8255 49.8594 96.6016C50.4844 95.3724 51.3385 94.4297 52.4219 93.7734C53.5104 93.112 54.7474 92.7812 56.1328 92.7812C57.513 92.7812 58.7448 93.112 59.8281 93.7734C60.9167 94.4297 61.7734 95.3724 62.3984 96.6016C63.0234 97.8255 63.3359 99.2917 63.3359 101ZM60.9453 101C60.9453 99.6979 60.7344 98.6016 60.3125 97.7109C59.8958 96.8151 59.3229 96.138 58.5938 95.6797C57.8698 95.2161 57.0495 94.9844 56.1328 94.9844C55.2109 94.9844 54.388 95.2161 53.6641 95.6797C52.9401 96.138 52.3672 96.8151 51.9453 97.7109C51.5286 98.6016 51.3203 99.6979 51.3203 101C51.3203 102.302 51.5286 103.401 51.9453 104.297C52.3672 105.187 52.9401 105.865 53.6641 106.328C54.388 106.786 55.2109 107.016 56.1328 107.016C57.0495 107.016 57.8698 106.786 58.5938 106.328C59.3229 105.865 59.8958 105.187 60.3125 104.297C60.7344 103.401 60.9453 102.302 60.9453 101ZM79.2598 93V109H77.041L68.9082 97.2656H68.7598V109H66.3457V93H68.5801L76.7207 104.75H76.8691V93H79.2598ZM82.7813 109V93H85.1953V106.922H92.4453V109H82.7813ZM92.7832 93H95.5254L99.7051 100.273H99.877L104.057 93H106.799L100.994 102.719V109H98.5879V102.719L92.7832 93Z" fill="white"/>
<circle cx="76" cy="76" r="70.5" stroke="#BD1669" stroke-width="11"/>
<circle cx="76" cy="76" r="60.5" stroke="white" stroke-width="7"/>
</svg>
