<svg width="505" height="201" viewBox="0 0 505 201" fill="none" xmlns="http://www.w3.org/2000/svg">
<path d="M244.162 43.6612C244.984 43.9412 245.788 44.2741 246.568 44.6581L255.949 49.2769C258.496 50.5305 261.479 50.5305 264.026 49.2769L273.407 44.6581C283.372 39.7517 295.428 43.8528 300.334 53.8181L300.872 55.0053L301.331 56.2247L304.699 66.1243C305.613 68.8111 307.723 70.921 310.41 71.835L320.309 75.2026C330.825 78.7798 336.45 90.2045 332.873 100.72C332.593 101.543 332.26 102.347 331.876 103.127L327.257 112.508C326.003 115.054 326.003 118.038 327.257 120.584L331.876 129.966C336.782 139.931 332.681 151.987 322.716 156.893C321.936 157.277 321.132 157.61 320.309 157.89L310.41 161.258C307.723 162.172 305.613 164.282 304.699 166.968L301.331 176.868C297.754 187.384 286.329 193.009 275.813 189.431C274.991 189.152 274.187 188.819 273.407 188.435L264.026 183.816C261.479 182.562 258.496 182.562 255.949 183.816L246.568 188.435C236.603 193.341 224.547 189.24 219.641 179.275C219.257 178.495 218.924 177.691 218.644 176.868L215.276 166.968C214.362 164.282 212.252 162.172 209.565 161.258L199.666 157.89C189.15 154.313 183.525 142.888 187.102 132.372C187.382 131.549 187.715 130.746 188.099 129.966L192.718 120.584C193.972 118.038 193.972 115.054 192.718 112.508L188.099 103.127C183.193 93.1617 187.294 81.1058 197.259 76.1994C198.039 75.8155 198.843 75.4825 199.666 75.2026L209.565 71.835C212.252 70.921 214.362 68.8111 215.276 66.1243L218.644 56.2247C222.221 45.7089 233.646 40.084 244.162 43.6612ZM285.363 94.384L245.729 134.018L231.29 116.692C229.351 114.364 225.892 114.05 223.565 115.989C221.238 117.929 220.924 121.387 222.863 123.715L241.147 145.655C243.212 148.133 246.958 148.303 249.239 146.022L293.12 102.141C295.262 99.9991 295.262 96.5261 293.12 94.384C290.978 92.2419 287.505 92.2419 285.363 94.384Z" fill="#353280"/>
<path d="M344.51 133.011C345.85 133.089 346.852 134.183 346.747 135.453C346.641 136.723 345.468 137.691 344.129 137.614C342.789 137.536 341.787 136.441 341.892 135.171C341.997 133.901 343.171 132.933 344.51 133.011Z" stroke="#FCD289" stroke-width="4.28355"/>
<path d="M203.088 184.567C205.291 184.695 206.939 186.495 206.766 188.583C206.592 190.672 204.663 192.264 202.46 192.136C200.257 192.008 198.609 190.208 198.783 188.119C198.956 186.03 200.885 184.439 203.088 184.567Z" stroke="#FCB789" stroke-width="7.044"/>
<path d="M253.61 28.2179C255.813 28.346 257.461 30.1458 257.287 32.2345C257.114 34.3232 255.185 35.9151 252.982 35.787C250.779 35.659 249.131 33.8591 249.304 31.7704C249.477 29.6817 251.407 28.0898 253.61 28.2179Z" stroke="#FCD289" stroke-width="7.044"/>
<path d="M163.217 77.152C164.236 77.152 165.064 77.9236 165.064 78.8741C165.064 79.8245 164.236 80.5961 163.217 80.5961C162.198 80.5961 161.371 79.8245 161.371 78.8741C161.371 77.9236 162.198 77.152 163.217 77.152Z" stroke="#FCEB89" stroke-width="5.14888"/>
<path d="M306.616 189.452C307.635 189.452 308.462 190.224 308.462 191.174C308.462 192.125 307.635 192.896 306.616 192.896C305.597 192.896 304.77 192.125 304.77 191.174C304.77 190.224 305.597 189.452 306.616 189.452Z" stroke="#FCEB89" stroke-width="5.14888"/>
<path d="M329.361 27.6263L328.083 20.7855" stroke="#FCB789" stroke-width="3"/>
<path d="M325.205 24.8251L332.505 23.6376" stroke="#FCB789" stroke-width="3"/>
<path d="M172.459 140.395L170.789 133.66" stroke="#FF6200" stroke-width="3"/>
<path d="M168.147 137.82L175.367 136.262" stroke="#FF6200" stroke-width="3"/>
<path d="M326.637 170.168L324.293 163.611" stroke="#FC9554" stroke-width="3"/>
<path d="M322.075 167.959L329.105 165.772" stroke="#FC9554" stroke-width="3"/>
<rect width="31.323" height="6.46706" rx="1.5" transform="matrix(0.763396 -0.645931 0.557251 0.830344 52.8008 49.4258)" fill="#FE4B20"/>
<rect width="31.8332" height="6.36665" rx="1.5" transform="matrix(0.665075 -0.746777 0.665075 0.746777 479.016 87.3638)" fill="#FE4B20"/>
<rect width="12.6563" height="12.8098" transform="matrix(0.703221 0.710971 -0.625594 0.780149 178.893 0)" fill="#9186F4"/>
<rect width="13.284" height="12.1577" transform="matrix(0.308353 0.951272 -0.925679 0.378311 11.2539 175.698)" fill="#9186F4"/>
<rect width="21.0938" height="4.26994" rx="1.5" transform="matrix(-0.703222 0.71097 -0.625595 -0.780148 415.638 65.98)" fill="#9186F4"/>
<rect width="20.6395" height="4.35784" rx="1.5" transform="matrix(-0.828973 -0.559289 0.471814 -0.881698 142.949 111.322)" fill="#9186F4"/>
<path d="M420 120.103L413.157 126.483L404.892 122.79C404.313 122.531 403.74 123.175 403.97 123.825L407.259 133.105L401.577 140.789C401.179 141.327 401.548 142.139 402.169 142.094L411.045 141.449L415.798 149.891C416.131 150.482 416.932 150.34 417.086 149.662L419.283 139.984L427.902 137.517C428.506 137.344 428.633 136.445 428.106 136.071L420.588 130.734L421.162 120.768C421.202 120.07 420.479 119.656 420 120.103Z" fill="#FFDC64"/>
<path d="M397.831 130.273C398.593 130.413 401.399 131.539 403.024 132.207C403.28 132.312 403.218 132.735 402.946 132.743C401.217 132.798 398.238 132.867 397.475 132.727C396.871 132.617 396.462 131.978 396.56 131.3C396.658 130.623 397.227 130.163 397.831 130.273Z" fill="#FFF082"/>
<path d="M410.634 115.895C410.758 116.752 411.762 119.902 412.357 121.727C412.45 122.014 412.827 121.945 412.834 121.639C412.883 119.697 412.944 116.352 412.82 115.496C412.722 114.818 412.153 114.358 411.549 114.468C410.946 114.579 410.536 115.218 410.634 115.895Z" fill="#FFF082"/>
<path d="M428.684 124.832C427.995 125.225 425.626 127.256 424.259 128.446C424.044 128.633 424.217 129.015 424.478 128.931C426.141 128.392 428.998 127.442 429.687 127.049C430.232 126.738 430.449 125.989 430.172 125.377C429.895 124.765 429.229 124.521 428.684 124.832Z" fill="#FFF082"/>
<path d="M405.789 150.54C406.139 149.766 407.948 147.107 409.008 145.572C409.175 145.33 409.515 145.524 409.44 145.818C408.96 147.685 408.114 150.893 407.763 151.666C407.486 152.278 406.82 152.522 406.275 152.211C405.73 151.9 405.512 151.152 405.789 150.54Z" fill="#FFF082"/>
<path d="M425.314 148.459C424.767 147.846 423.076 145.091 422.105 143.483C421.952 143.23 422.222 142.927 422.447 143.098C423.879 144.189 426.333 146.088 426.879 146.701C427.312 147.187 427.312 147.974 426.879 148.459C426.447 148.945 425.746 148.945 425.314 148.459Z" fill="#FFF082"/>
<path d="M407.897 124.133L404.892 122.79C404.313 122.531 403.74 123.175 403.97 123.825L407.259 133.105L401.577 140.789C401.179 141.327 401.548 142.139 402.169 142.094L411.045 141.449L415.798 149.891C416.131 150.482 416.932 150.34 417.086 149.662L417.378 148.374C410.92 138.472 408.63 128.451 407.897 124.133Z" fill="#FFC850"/>
</svg>
